<?xml version="1.0" encoding="utf-8" standalone="no"?>
<!DOCTYPE svg PUBLIC "-//W3C//DTD SVG 1.1//EN"
  "http://www.w3.org/Graphics/SVG/1.1/DTD/svg11.dtd">
<svg xmlns:xlink="http://www.w3.org/1999/xlink" width="439.0125pt" height="139.561875pt" viewBox="0 0 439.0125 139.561875" xmlns="http://www.w3.org/2000/svg" version="1.1">
 <metadata>
  <rdf:RDF xmlns:dc="http://purl.org/dc/elements/1.1/" xmlns:cc="http://creativecommons.org/ns#" xmlns:rdf="http://www.w3.org/1999/02/22-rdf-syntax-ns#">
   <cc:Work>
    <dc:type rdf:resource="http://purl.org/dc/dcmitype/StillImage"/>
    <dc:date>2025-12-10T21:36:55.612212</dc:date>
    <dc:format>image/svg+xml</dc:format>
    <dc:creator>
     <cc:Agent>
      <dc:title>Matplotlib v3.9.1, https://matplotlib.org/</dc:title>
     </cc:Agent>
    </dc:creator>
   </cc:Work>
  </rdf:RDF>
 </metadata>
 <defs>
  <style type="text/css">*{stroke-linejoin: round; stroke-linecap: butt}</style>
 </defs>
 <g id="figure_1">
  <g id="patch_1">
   <path d="M 0 139.561875 
L 439.0125 139.561875 
L 439.0125 0 
L 0 0 
z
" style="fill: #ffffff"/>
  </g>
  <g id="axes_1">
   <g id="patch_2">
    <path d="M 41.2125 121.119375 
L 431.8125 121.119375 
L 431.8125 10.239375 
L 41.2125 10.239375 
z
" style="fill: #ffffff"/>
   </g>
   <g id="patch_3">
    <path d="M 58.967045 118.732526 
L 58.967045 102.699649 
L 58.967045 102.699649 
L 58.967244 102.690912 
L 58.96784 102.682189 
L 58.968831 102.673494 
L 58.970217 102.664842 
L 58.971995 102.656246 
L 58.974162 102.647721 
L 58.976714 102.63928 
L 58.979648 102.630936 
L 58.982959 102.622705 
L 58.986642 102.614598 
L 58.99069 102.606629 
L 58.995096 102.59881 
L 58.999855 102.591156 
L 59.004957 102.583677 
L 59.010395 102.576387 
L 59.01616 102.569296 
L 59.022243 102.562417 
L 59.028633 102.55576 
L 59.03532 102.549337 
L 59.042294 102.543158 
L 59.049543 102.537232 
L 59.057056 102.53157 
L 59.06482 102.526181 
L 59.072822 102.521073 
L 59.08105 102.516254 
L 59.089491 102.511733 
L 59.09813 102.507517 
L 59.106953 102.503613 
L 59.115947 102.500026 
L 59.125096 102.496763 
L 59.134387 102.49383 
L 59.143803 102.49123 
L 59.15333 102.488968 
L 59.162951 102.487048 
L 59.172653 102.485473 
L 59.182417 102.484245 
L 59.19223 102.483366 
L 59.202075 102.482839 
L 59.211936 102.482663 
L 83.211183 102.482663 
L 83.221044 102.482839 
L 83.230889 102.483366 
L 83.240702 102.484245 
L 83.250467 102.485473 
L 83.260168 102.487048 
L 83.269789 102.488968 
L 83.279316 102.49123 
L 83.288732 102.49383 
L 83.298023 102.496763 
L 83.307172 102.500026 
L 83.316166 102.503613 
L 83.32499 102.507517 
L 83.333629 102.511733 
L 83.342069 102.516254 
L 83.350297 102.521073 
L 83.358299 102.526181 
L 83.366063 102.53157 
L 83.373576 102.537232 
L 83.380825 102.543158 
L 83.387799 102.549337 
L 83.394486 102.55576 
L 83.400877 102.562417 
L 83.406959 102.569296 
L 83.412724 102.576387 
L 83.418162 102.583677 
L 83.423265 102.591156 
L 83.428023 102.59881 
L 83.43243 102.606629 
L 83.436477 102.614598 
L 83.44016 102.622705 
L 83.443471 102.630936 
L 83.446405 102.63928 
L 83.448958 102.647721 
L 83.451125 102.656246 
L 83.452902 102.664842 
L 83.454288 102.673494 
L 83.45528 102.682189 
L 83.455875 102.690912 
L 83.456074 102.699649 
L 83.456074 102.699649 
L 83.456074 118.732526 
L 58.967045 118.732526 
z
" style="fill: none; stroke: #999999; stroke-width: 1.2; stroke-linejoin: miter"/>
   </g>
   <g id="patch_4">
    <path d="M 95.700588 118.732526 
L 95.700588 95.298005 
L 95.700588 95.298005 
L 95.700786 95.289268 
L 95.701382 95.280545 
L 95.702373 95.27185 
L 95.703759 95.263198 
L 95.705537 95.254602 
L 95.707704 95.246077 
L 95.710257 95.237636 
L 95.713191 95.229293 
L 95.716502 95.221061 
L 95.720184 95.212954 
L 95.724232 95.204985 
L 95.728638 95.197167 
L 95.733397 95.189512 
L 95.738499 95.182033 
L 95.743937 95.174743 
L 95.749702 95.167652 
L 95.755785 95.160773 
L 95.762175 95.154117 
L 95.768863 95.147693 
L 95.775837 95.141514 
L 95.783086 95.135589 
L 95.790598 95.129926 
L 95.798362 95.124537 
L 95.806365 95.119429 
L 95.814593 95.11461 
L 95.823033 95.110089 
L 95.831672 95.105873 
L 95.840495 95.101969 
L 95.849489 95.098382 
L 95.858639 95.095119 
L 95.867929 95.092186 
L 95.877345 95.089586 
L 95.886872 95.087324 
L 95.896494 95.085404 
L 95.906195 95.083829 
L 95.91596 95.082601 
L 95.925773 95.081722 
L 95.935617 95.081195 
L 95.945478 95.081019 
L 119.944726 95.081019 
L 119.954586 95.081195 
L 119.964431 95.081722 
L 119.974244 95.082601 
L 119.984009 95.083829 
L 119.99371 95.085404 
L 120.003332 95.087324 
L 120.012858 95.089586 
L 120.022275 95.092186 
L 120.031565 95.095119 
L 120.040715 95.098382 
L 120.049708 95.101969 
L 120.058532 95.105873 
L 120.067171 95.110089 
L 120.075611 95.11461 
L 120.083839 95.119429 
L 120.091842 95.124537 
L 120.099605 95.129926 
L 120.107118 95.135589 
L 120.114367 95.141514 
L 120.121341 95.147693 
L 120.128029 95.154117 
L 120.134419 95.160773 
L 120.140501 95.167652 
L 120.146266 95.174743 
L 120.151705 95.182033 
L 120.156807 95.189512 
L 120.161565 95.197167 
L 120.165972 95.204985 
L 120.17002 95.212954 
L 120.173702 95.221061 
L 120.177013 95.229293 
L 120.179947 95.237636 
L 120.1825 95.246077 
L 120.184667 95.254602 
L 120.186445 95.263198 
L 120.18783 95.27185 
L 120.188822 95.280545 
L 120.189417 95.289268 
L 120.189616 95.298005 
L 120.189616 95.298005 
L 120.189616 118.732526 
L 95.700588 118.732526 
z
" style="fill: none; stroke: #999999; stroke-width: 1.2; stroke-linejoin: miter"/>
   </g>
   <g id="patch_5">
    <path d="M 132.43413 118.732526 
L 132.43413 92.163759 
L 132.43413 92.163759 
L 132.434329 92.155021 
L 132.434924 92.146298 
L 132.435916 92.137604 
L 132.437301 92.128952 
L 132.439079 92.120356 
L 132.441246 92.11183 
L 132.443799 92.103389 
L 132.446733 92.095046 
L 132.450044 92.086814 
L 132.453726 92.078707 
L 132.457774 92.070738 
L 132.462181 92.06292 
L 132.466939 92.055265 
L 132.472042 92.047787 
L 132.47748 92.040496 
L 132.483245 92.033406 
L 132.489327 92.026527 
L 132.495717 92.01987 
L 132.502405 92.013447 
L 132.509379 92.007268 
L 132.516628 92.001342 
L 132.524141 91.99568 
L 132.531904 91.99029 
L 132.539907 91.985182 
L 132.548135 91.980364 
L 132.556575 91.975843 
L 132.565214 91.971627 
L 132.574038 91.967722 
L 132.583032 91.964136 
L 132.592181 91.960873 
L 132.601471 91.957939 
L 132.610888 91.955339 
L 132.620414 91.953077 
L 132.630036 91.951157 
L 132.639737 91.949582 
L 132.649502 91.948354 
L 132.659315 91.947476 
L 132.66916 91.946948 
L 132.67902 91.946772 
L 156.678268 91.946772 
L 156.688129 91.946948 
L 156.697974 91.947476 
L 156.707786 91.948354 
L 156.717551 91.949582 
L 156.727252 91.951157 
L 156.736874 91.953077 
L 156.746401 91.955339 
L 156.755817 91.957939 
L 156.765107 91.960873 
L 156.774257 91.964136 
L 156.783251 91.967722 
L 156.792074 91.971627 
L 156.800713 91.975843 
L 156.809154 91.980364 
L 156.817382 91.985182 
L 156.825384 91.99029 
L 156.833148 91.99568 
L 156.84066 92.001342 
L 156.847909 92.007268 
L 156.854883 92.013447 
L 156.861571 92.01987 
L 156.867961 92.026527 
L 156.874044 92.033406 
L 156.879809 92.040496 
L 156.885247 92.047787 
L 156.890349 92.055265 
L 156.895108 92.06292 
L 156.899514 92.070738 
L 156.903562 92.078707 
L 156.907244 92.086814 
L 156.910555 92.095046 
L 156.91349 92.103389 
L 156.916042 92.11183 
L 156.918209 92.120356 
L 156.919987 92.128952 
L 156.921373 92.137604 
L 156.922364 92.146298 
L 156.92296 92.155021 
L 156.923158 92.163759 
L 156.923158 92.163759 
L 156.923158 118.732526 
L 132.43413 118.732526 
z
" style="fill: none; stroke: #999999; stroke-width: 1.2; stroke-linejoin: miter"/>
   </g>
   <g id="patch_6">
    <path d="M 169.167672 118.732526 
L 169.167672 98.721567 
L 169.167672 98.721567 
L 169.167871 98.71283 
L 169.168467 98.704107 
L 169.169458 98.695412 
L 169.170844 98.68676 
L 169.172621 98.678164 
L 169.174788 98.669639 
L 169.177341 98.661197 
L 169.180275 98.652854 
L 169.183586 98.644622 
L 169.187269 98.636515 
L 169.191316 98.628546 
L 169.195723 98.620728 
L 169.200481 98.613074 
L 169.205584 98.605595 
L 169.211022 98.598305 
L 169.216787 98.591214 
L 169.222869 98.584335 
L 169.22926 98.577678 
L 169.235947 98.571255 
L 169.242921 98.565076 
L 169.25017 98.55915 
L 169.257683 98.553488 
L 169.265447 98.548099 
L 169.273449 98.542991 
L 169.281677 98.538172 
L 169.290118 98.533651 
L 169.298757 98.529435 
L 169.30758 98.52553 
L 169.316574 98.521944 
L 169.325723 98.518681 
L 169.335014 98.515747 
L 169.34443 98.513148 
L 169.353957 98.510886 
L 169.363578 98.508966 
L 169.37328 98.50739 
L 169.383044 98.506163 
L 169.392857 98.505284 
L 169.402702 98.504756 
L 169.412563 98.50458 
L 193.41181 98.50458 
L 193.421671 98.504756 
L 193.431516 98.505284 
L 193.441329 98.506163 
L 193.451094 98.50739 
L 193.460795 98.508966 
L 193.470416 98.510886 
L 193.479943 98.513148 
L 193.489359 98.515747 
L 193.49865 98.518681 
L 193.507799 98.521944 
L 193.516793 98.52553 
L 193.525617 98.529435 
L 193.534255 98.533651 
L 193.542696 98.538172 
L 193.550924 98.542991 
L 193.558926 98.548099 
L 193.56669 98.553488 
L 193.574203 98.55915 
L 193.581452 98.565076 
L 193.588426 98.571255 
L 193.595113 98.577678 
L 193.601504 98.584335 
L 193.607586 98.591214 
L 193.613351 98.598305 
L 193.618789 98.605595 
L 193.623892 98.613074 
L 193.62865 98.620728 
L 193.633057 98.628546 
L 193.637104 98.636515 
L 193.640787 98.644622 
L 193.644098 98.652854 
L 193.647032 98.661197 
L 193.649585 98.669639 
L 193.651752 98.678164 
L 193.653529 98.68676 
L 193.654915 98.695412 
L 193.655907 98.704107 
L 193.656502 98.71283 
L 193.656701 98.721567 
L 193.656701 98.721567 
L 193.656701 118.732526 
L 169.167672 118.732526 
z
" style="fill: none; stroke: #999999; stroke-width: 1.2; stroke-linejoin: miter"/>
   </g>
   <g id="patch_7">
    <path d="M 205.901215 118.732526 
L 205.901215 70.899101 
L 205.901215 70.899101 
L 205.901413 70.890364 
L 205.902009 70.881641 
L 205.903 70.872946 
L 205.904386 70.864294 
L 205.906164 70.855698 
L 205.908331 70.847173 
L 205.910883 70.838732 
L 205.913818 70.830388 
L 205.917129 70.822157 
L 205.920811 70.81405 
L 205.924859 70.806081 
L 205.929265 70.798262 
L 205.934024 70.790608 
L 205.939126 70.783129 
L 205.944564 70.775839 
L 205.950329 70.768748 
L 205.956412 70.761869 
L 205.962802 70.755212 
L 205.96949 70.748789 
L 205.976464 70.74261 
L 205.983713 70.736684 
L 205.991225 70.731022 
L 205.998989 70.725633 
L 206.006991 70.720525 
L 206.01522 70.715706 
L 206.02366 70.711185 
L 206.032299 70.706969 
L 206.041122 70.703065 
L 206.050116 70.699478 
L 206.059266 70.696215 
L 206.068556 70.693282 
L 206.077972 70.690682 
L 206.087499 70.68842 
L 206.097121 70.6865 
L 206.106822 70.684925 
L 206.116587 70.683697 
L 206.1264 70.682818 
L 206.136244 70.682291 
L 206.146105 70.682115 
L 230.145353 70.682115 
L 230.155213 70.682291 
L 230.165058 70.682818 
L 230.174871 70.683697 
L 230.184636 70.684925 
L 230.194337 70.6865 
L 230.203959 70.68842 
L 230.213485 70.690682 
L 230.222902 70.693282 
L 230.232192 70.696215 
L 230.241341 70.699478 
L 230.250335 70.703065 
L 230.259159 70.706969 
L 230.267798 70.711185 
L 230.276238 70.715706 
L 230.284466 70.720525 
L 230.292469 70.725633 
L 230.300232 70.731022 
L 230.307745 70.736684 
L 230.314994 70.74261 
L 230.321968 70.748789 
L 230.328656 70.755212 
L 230.335046 70.761869 
L 230.341128 70.768748 
L 230.346893 70.775839 
L 230.352332 70.783129 
L 230.357434 70.790608 
L 230.362192 70.798262 
L 230.366599 70.806081 
L 230.370647 70.81405 
L 230.374329 70.822157 
L 230.37764 70.830388 
L 230.380574 70.838732 
L 230.383127 70.847173 
L 230.385294 70.855698 
L 230.387072 70.864294 
L 230.388457 70.872946 
L 230.389449 70.881641 
L 230.390044 70.890364 
L 230.390243 70.899101 
L 230.390243 70.899101 
L 230.390243 118.732526 
L 205.901215 118.732526 
z
" style="fill: none; stroke: #999999; stroke-width: 1.2; stroke-linejoin: miter"/>
   </g>
   <g id="patch_8">
    <path d="M 242.634757 118.732526 
L 242.634757 103.586882 
L 242.634757 103.586882 
L 242.634956 103.578145 
L 242.635551 103.569422 
L 242.636543 103.560727 
L 242.637928 103.552075 
L 242.639706 103.543479 
L 242.641873 103.534954 
L 242.644426 103.526512 
L 242.64736 103.518169 
L 242.650671 103.509937 
L 242.654353 103.50183 
L 242.658401 103.493861 
L 242.662808 103.486043 
L 242.667566 103.478389 
L 242.672668 103.47091 
L 242.678107 103.46362 
L 242.683872 103.456529 
L 242.689954 103.44965 
L 242.696344 103.442993 
L 242.703032 103.43657 
L 242.710006 103.430391 
L 242.717255 103.424465 
L 242.724768 103.418803 
L 242.732531 103.413414 
L 242.740534 103.408306 
L 242.748762 103.403487 
L 242.757202 103.398966 
L 242.765841 103.39475 
L 242.774665 103.390845 
L 242.783659 103.387259 
L 242.792808 103.383996 
L 242.802098 103.381062 
L 242.811515 103.378463 
L 242.821041 103.376201 
L 242.830663 103.374281 
L 242.840364 103.372705 
L 242.850129 103.371478 
L 242.859942 103.370599 
L 242.869787 103.370072 
L 242.879647 103.369896 
L 266.878895 103.369896 
L 266.888756 103.370072 
L 266.8986 103.370599 
L 266.908413 103.371478 
L 266.918178 103.372705 
L 266.927879 103.374281 
L 266.937501 103.376201 
L 266.947028 103.378463 
L 266.956444 103.381062 
L 266.965734 103.383996 
L 266.974884 103.387259 
L 266.983878 103.390845 
L 266.992701 103.39475 
L 267.00134 103.398966 
L 267.00978 103.403487 
L 267.018009 103.408306 
L 267.026011 103.413414 
L 267.033775 103.418803 
L 267.041287 103.424465 
L 267.048536 103.430391 
L 267.05551 103.43657 
L 267.062198 103.442993 
L 267.068588 103.44965 
L 267.074671 103.456529 
L 267.080436 103.46362 
L 267.085874 103.47091 
L 267.090976 103.478389 
L 267.095735 103.486043 
L 267.100141 103.493861 
L 267.104189 103.50183 
L 267.107871 103.509937 
L 267.111182 103.518169 
L 267.114117 103.526512 
L 267.116669 103.534954 
L 267.118836 103.543479 
L 267.120614 103.552075 
L 267.122 103.560727 
L 267.122991 103.569422 
L 267.123587 103.578145 
L 267.123785 103.586882 
L 267.123785 103.586882 
L 267.123785 118.732526 
L 242.634757 118.732526 
z
" style="fill: none; stroke: #999999; stroke-width: 1.2; stroke-linejoin: miter"/>
   </g>
   <g id="patch_9">
    <path d="M 279.368299 118.732526 
L 279.368299 45.166937 
L 279.368299 45.166937 
L 279.368498 45.158199 
L 279.369093 45.149477 
L 279.370085 45.140782 
L 279.371471 45.13213 
L 279.373248 45.123534 
L 279.375415 45.115008 
L 279.377968 45.106567 
L 279.380902 45.098224 
L 279.384213 45.089992 
L 279.387896 45.081885 
L 279.391943 45.073916 
L 279.39635 45.066098 
L 279.401108 45.058443 
L 279.406211 45.050965 
L 279.411649 45.043674 
L 279.417414 45.036584 
L 279.423496 45.029705 
L 279.429887 45.023048 
L 279.436574 45.016625 
L 279.443548 45.010446 
L 279.450797 45.00452 
L 279.45831 44.998858 
L 279.466074 44.993469 
L 279.474076 44.98836 
L 279.482304 44.983542 
L 279.490745 44.979021 
L 279.499383 44.974805 
L 279.508207 44.9709 
L 279.517201 44.967314 
L 279.52635 44.964051 
L 279.535641 44.961117 
L 279.545057 44.958517 
L 279.554584 44.956256 
L 279.564205 44.954335 
L 279.573906 44.95276 
L 279.583671 44.951532 
L 279.593484 44.950654 
L 279.603329 44.950126 
L 279.61319 44.94995 
L 303.612437 44.94995 
L 303.622298 44.950126 
L 303.632143 44.950654 
L 303.641956 44.951532 
L 303.65172 44.95276 
L 303.661422 44.954335 
L 303.671043 44.956256 
L 303.68057 44.958517 
L 303.689986 44.961117 
L 303.699277 44.964051 
L 303.708426 44.967314 
L 303.71742 44.9709 
L 303.726243 44.974805 
L 303.734882 44.979021 
L 303.743323 44.983542 
L 303.751551 44.98836 
L 303.759553 44.993469 
L 303.767317 44.998858 
L 303.77483 45.00452 
L 303.782079 45.010446 
L 303.789053 45.016625 
L 303.79574 45.023048 
L 303.802131 45.029705 
L 303.808213 45.036584 
L 303.813978 45.043674 
L 303.819416 45.050965 
L 303.824519 45.058443 
L 303.829277 45.066098 
L 303.833684 45.073916 
L 303.837731 45.081885 
L 303.841414 45.089992 
L 303.844725 45.098224 
L 303.847659 45.106567 
L 303.850212 45.115008 
L 303.852379 45.123534 
L 303.854156 45.13213 
L 303.855542 45.140782 
L 303.856533 45.149477 
L 303.857129 45.158199 
L 303.857328 45.166937 
L 303.857328 45.166937 
L 303.857328 118.732526 
L 279.368299 118.732526 
z
" style="fill: none; stroke: #999999; stroke-width: 1.2; stroke-linejoin: miter"/>
   </g>
   <g id="patch_10">
    <path d="M 316.101842 118.732526 
L 316.101842 91.551375 
L 316.101842 91.551375 
L 316.10204 91.542638 
L 316.102636 91.533915 
L 316.103627 91.52522 
L 316.105013 91.516568 
L 316.106791 91.507972 
L 316.108958 91.499447 
L 316.11151 91.491006 
L 316.114445 91.482662 
L 316.117756 91.474431 
L 316.121438 91.466324 
L 316.125486 91.458355 
L 316.129892 91.450536 
L 316.134651 91.442882 
L 316.139753 91.435403 
L 316.145191 91.428113 
L 316.150956 91.421022 
L 316.157039 91.414143 
L 316.163429 91.407486 
L 316.170117 91.401063 
L 316.177091 91.394884 
L 316.18434 91.388958 
L 316.191852 91.383296 
L 316.199616 91.377907 
L 316.207618 91.372799 
L 316.215846 91.36798 
L 316.224287 91.363459 
L 316.232926 91.359243 
L 316.241749 91.355339 
L 316.250743 91.351752 
L 316.259893 91.348489 
L 316.269183 91.345556 
L 316.278599 91.342956 
L 316.288126 91.340694 
L 316.297748 91.338774 
L 316.307449 91.337199 
L 316.317214 91.335971 
L 316.327026 91.335092 
L 316.336871 91.334565 
L 316.346732 91.334389 
L 340.34598 91.334389 
L 340.35584 91.334565 
L 340.365685 91.335092 
L 340.375498 91.335971 
L 340.385263 91.337199 
L 340.394964 91.338774 
L 340.404586 91.340694 
L 340.414112 91.342956 
L 340.423529 91.345556 
L 340.432819 91.348489 
L 340.441968 91.351752 
L 340.450962 91.355339 
L 340.459786 91.359243 
L 340.468425 91.363459 
L 340.476865 91.36798 
L 340.485093 91.372799 
L 340.493096 91.377907 
L 340.500859 91.383296 
L 340.508372 91.388958 
L 340.515621 91.394884 
L 340.522595 91.401063 
L 340.529283 91.407486 
L 340.535673 91.414143 
L 340.541755 91.421022 
L 340.54752 91.428113 
L 340.552958 91.435403 
L 340.558061 91.442882 
L 340.562819 91.450536 
L 340.567226 91.458355 
L 340.571274 91.466324 
L 340.574956 91.474431 
L 340.578267 91.482662 
L 340.581201 91.491006 
L 340.583754 91.499447 
L 340.585921 91.507972 
L 340.587699 91.516568 
L 340.589084 91.52522 
L 340.590076 91.533915 
L 340.590671 91.542638 
L 340.59087 91.551375 
L 340.59087 91.551375 
L 340.59087 118.732526 
L 316.101842 118.732526 
z
" style="fill: none; stroke: #999999; stroke-width: 1.2; stroke-linejoin: miter"/>
   </g>
   <g id="patch_11">
    <path d="M 352.835384 118.732526 
L 352.835384 79.660526 
L 352.835384 79.660526 
L 352.835583 79.651789 
L 352.836178 79.643066 
L 352.83717 79.634371 
L 352.838555 79.625719 
L 352.840333 79.617123 
L 352.8425 79.608597 
L 352.845053 79.600156 
L 352.847987 79.591813 
L 352.851298 79.583581 
L 352.85498 79.575474 
L 352.859028 79.567505 
L 352.863435 79.559687 
L 352.868193 79.552033 
L 352.873295 79.544554 
L 352.878734 79.537263 
L 352.884499 79.530173 
L 352.890581 79.523294 
L 352.896971 79.516637 
L 352.903659 79.510214 
L 352.910633 79.504035 
L 352.917882 79.498109 
L 352.925395 79.492447 
L 352.933158 79.487058 
L 352.941161 79.481949 
L 352.949389 79.477131 
L 352.957829 79.47261 
L 352.966468 79.468394 
L 352.975292 79.464489 
L 352.984285 79.460903 
L 352.993435 79.45764 
L 353.002725 79.454706 
L 353.012142 79.452106 
L 353.021668 79.449845 
L 353.03129 79.447925 
L 353.040991 79.446349 
L 353.050756 79.445121 
L 353.060569 79.444243 
L 353.070414 79.443715 
L 353.080274 79.443539 
L 377.079522 79.443539 
L 377.089383 79.443715 
L 377.099227 79.444243 
L 377.10904 79.445121 
L 377.118805 79.446349 
L 377.128506 79.447925 
L 377.138128 79.449845 
L 377.147655 79.452106 
L 377.157071 79.454706 
L 377.166361 79.45764 
L 377.175511 79.460903 
L 377.184505 79.464489 
L 377.193328 79.468394 
L 377.201967 79.47261 
L 377.210407 79.477131 
L 377.218635 79.481949 
L 377.226638 79.487058 
L 377.234402 79.492447 
L 377.241914 79.498109 
L 377.249163 79.504035 
L 377.256137 79.510214 
L 377.262825 79.516637 
L 377.269215 79.523294 
L 377.275298 79.530173 
L 377.281063 79.537263 
L 377.286501 79.544554 
L 377.291603 79.552033 
L 377.296362 79.559687 
L 377.300768 79.567505 
L 377.304816 79.575474 
L 377.308498 79.583581 
L 377.311809 79.591813 
L 377.314743 79.600156 
L 377.317296 79.608597 
L 377.319463 79.617123 
L 377.321241 79.625719 
L 377.322627 79.634371 
L 377.323618 79.643066 
L 377.324214 79.651789 
L 377.324412 79.660526 
L 377.324412 79.660526 
L 377.324412 118.732526 
L 352.835384 118.732526 
z
" style="fill: none; stroke-dasharray: 4.44,1.92; stroke-dashoffset: 0; stroke: #00a89d; stroke-opacity: 0.631373; stroke-width: 1.2; stroke-linejoin: miter"/>
   </g>
   <g id="patch_12">
    <path d="M 389.568926 118.732526 
L 389.568926 29.478827 
L 389.568926 29.478827 
L 389.569125 29.47009 
L 389.56972 29.461367 
L 389.570712 29.452672 
L 389.572098 29.44402 
L 389.573875 29.435424 
L 389.576042 29.426899 
L 389.578595 29.418458 
L 389.581529 29.410114 
L 389.58484 29.401883 
L 389.588523 29.393776 
L 389.59257 29.385807 
L 389.596977 29.377988 
L 389.601735 29.370334 
L 389.606838 29.362855 
L 389.612276 29.355565 
L 389.618041 29.348474 
L 389.624123 29.341595 
L 389.630514 29.334939 
L 389.637201 29.328515 
L 389.644175 29.322336 
L 389.651424 29.31641 
L 389.658937 29.310748 
L 389.666701 29.305359 
L 389.674703 29.300251 
L 389.682931 29.295432 
L 389.691371 29.290911 
L 389.70001 29.286695 
L 389.708834 29.282791 
L 389.717828 29.279204 
L 389.726977 29.275941 
L 389.736268 29.273008 
L 389.745684 29.270408 
L 389.755211 29.268146 
L 389.764832 29.266226 
L 389.774533 29.264651 
L 389.784298 29.263423 
L 389.794111 29.262544 
L 389.803956 29.262017 
L 389.813817 29.261841 
L 413.813064 29.261841 
L 413.822925 29.262017 
L 413.83277 29.262544 
L 413.842583 29.263423 
L 413.852347 29.264651 
L 413.862049 29.266226 
L 413.87167 29.268146 
L 413.881197 29.270408 
L 413.890613 29.273008 
L 413.899904 29.275941 
L 413.909053 29.279204 
L 413.918047 29.282791 
L 413.92687 29.286695 
L 413.935509 29.290911 
L 413.94395 29.295432 
L 413.952178 29.300251 
L 413.96018 29.305359 
L 413.967944 29.310748 
L 413.975457 29.31641 
L 413.982706 29.322336 
L 413.98968 29.328515 
L 413.996367 29.334939 
L 414.002757 29.341595 
L 414.00884 29.348474 
L 414.014605 29.355565 
L 414.020043 29.362855 
L 414.025145 29.370334 
L 414.029904 29.377988 
L 414.03431 29.385807 
L 414.038358 29.393776 
L 414.042041 29.401883 
L 414.045352 29.410114 
L 414.048286 29.418458 
L 414.050838 29.426899 
L 414.053005 29.435424 
L 414.054783 29.44402 
L 414.056169 29.452672 
L 414.05716 29.461367 
L 414.057756 29.47009 
L 414.057955 29.478827 
L 414.057955 29.478827 
L 414.057955 118.732526 
L 389.568926 118.732526 
z
" style="fill: none; stroke: #00a89d; stroke-width: 1.2; stroke-linejoin: miter"/>
   </g>
   <g id="matplotlib.axis_1">
    <g id="xtick_1">
     <g id="line2d_1"/>
     <g id="text_1">
      <!-- FBC -->
      <g transform="translate(63.443435 130.698125) scale(0.08 -0.08)">
       <defs>
        <path id="DejaVuSans-46" d="M 628 4666 
L 3309 4666 
L 3309 4134 
L 1259 4134 
L 1259 2759 
L 3109 2759 
L 3109 2228 
L 1259 2228 
L 1259 0 
L 628 0 
L 628 4666 
z
" transform="scale(0.015625)"/>
        <path id="DejaVuSans-42" d="M 1259 2228 
L 1259 519 
L 2272 519 
Q 2781 519 3026 730 
Q 3272 941 3272 1375 
Q 3272 1813 3026 2020 
Q 2781 2228 2272 2228 
L 1259 2228 
z
M 1259 4147 
L 1259 2741 
L 2194 2741 
Q 2656 2741 2882 2914 
Q 3109 3088 3109 3444 
Q 3109 3797 2882 3972 
Q 2656 4147 2194 4147 
L 1259 4147 
z
M 628 4666 
L 2241 4666 
Q 2963 4666 3353 4366 
Q 3744 4066 3744 3513 
Q 3744 3084 3544 2831 
Q 3344 2578 2956 2516 
Q 3422 2416 3680 2098 
Q 3938 1781 3938 1306 
Q 3938 681 3513 340 
Q 3088 0 2303 0 
L 628 0 
L 628 4666 
z
" transform="scale(0.015625)"/>
        <path id="DejaVuSans-43" d="M 4122 4306 
L 4122 3641 
Q 3803 3938 3442 4084 
Q 3081 4231 2675 4231 
Q 1875 4231 1450 3742 
Q 1025 3253 1025 2328 
Q 1025 1406 1450 917 
Q 1875 428 2675 428 
Q 3081 428 3442 575 
Q 3803 722 4122 1019 
L 4122 359 
Q 3791 134 3420 21 
Q 3050 -91 2638 -91 
Q 1578 -91 968 557 
Q 359 1206 359 2328 
Q 359 3453 968 4101 
Q 1578 4750 2638 4750 
Q 3056 4750 3426 4639 
Q 3797 4528 4122 4306 
z
" transform="scale(0.015625)"/>
       </defs>
       <use xlink:href="#DejaVuSans-46"/>
       <use xlink:href="#DejaVuSans-42" x="57.519531"/>
       <use xlink:href="#DejaVuSans-43" x="124.373047"/>
      </g>
     </g>
    </g>
    <g id="xtick_2">
     <g id="line2d_2"/>
     <g id="text_2">
      <!-- HFBC -->
      <g transform="translate(97.168852 130.698125) scale(0.08 -0.08)">
       <defs>
        <path id="DejaVuSans-48" d="M 628 4666 
L 1259 4666 
L 1259 2753 
L 3553 2753 
L 3553 4666 
L 4184 4666 
L 4184 0 
L 3553 0 
L 3553 2222 
L 1259 2222 
L 1259 0 
L 628 0 
L 628 4666 
z
" transform="scale(0.015625)"/>
       </defs>
       <use xlink:href="#DejaVuSans-48"/>
       <use xlink:href="#DejaVuSans-46" x="75.195312"/>
       <use xlink:href="#DejaVuSans-42" x="132.714844"/>
       <use xlink:href="#DejaVuSans-43" x="199.568359"/>
      </g>
     </g>
    </g>
    <g id="xtick_3">
     <g id="line2d_3"/>
     <g id="text_3">
      <!-- IQL -->
      <g transform="translate(138.121144 130.698125) scale(0.08 -0.08)">
       <defs>
        <path id="DejaVuSans-49" d="M 628 4666 
L 1259 4666 
L 1259 0 
L 628 0 
L 628 4666 
z
" transform="scale(0.015625)"/>
        <path id="DejaVuSans-51" d="M 2522 4238 
Q 1834 4238 1429 3725 
Q 1025 3213 1025 2328 
Q 1025 1447 1429 934 
Q 1834 422 2522 422 
Q 3209 422 3611 934 
Q 4013 1447 4013 2328 
Q 4013 3213 3611 3725 
Q 3209 4238 2522 4238 
z
M 3406 84 
L 4238 -825 
L 3475 -825 
L 2784 -78 
Q 2681 -84 2626 -87 
Q 2572 -91 2522 -91 
Q 1538 -91 948 567 
Q 359 1225 359 2328 
Q 359 3434 948 4092 
Q 1538 4750 2522 4750 
Q 3503 4750 4090 4092 
Q 4678 3434 4678 2328 
Q 4678 1516 4351 937 
Q 4025 359 3406 84 
z
" transform="scale(0.015625)"/>
        <path id="DejaVuSans-4c" d="M 628 4666 
L 1259 4666 
L 1259 531 
L 3531 531 
L 3531 0 
L 628 0 
L 628 4666 
z
" transform="scale(0.015625)"/>
       </defs>
       <use xlink:href="#DejaVuSans-49"/>
       <use xlink:href="#DejaVuSans-51" x="29.492188"/>
       <use xlink:href="#DejaVuSans-4c" x="108.203125"/>
      </g>
     </g>
    </g>
    <g id="xtick_4">
     <g id="line2d_4"/>
     <g id="text_4">
      <!-- HIQL -->
      <g transform="translate(171.846562 130.698125) scale(0.08 -0.08)">
       <use xlink:href="#DejaVuSans-48"/>
       <use xlink:href="#DejaVuSans-49" x="75.195312"/>
       <use xlink:href="#DejaVuSans-51" x="104.6875"/>
       <use xlink:href="#DejaVuSans-4c" x="183.398438"/>
      </g>
     </g>
    </g>
    <g id="xtick_5">
     <g id="line2d_5"/>
     <g id="text_5">
      <!-- SHARSA -->
      <g transform="translate(201.731979 130.698125) scale(0.08 -0.08)">
       <defs>
        <path id="DejaVuSans-53" d="M 3425 4513 
L 3425 3897 
Q 3066 4069 2747 4153 
Q 2428 4238 2131 4238 
Q 1616 4238 1336 4038 
Q 1056 3838 1056 3469 
Q 1056 3159 1242 3001 
Q 1428 2844 1947 2747 
L 2328 2669 
Q 3034 2534 3370 2195 
Q 3706 1856 3706 1288 
Q 3706 609 3251 259 
Q 2797 -91 1919 -91 
Q 1588 -91 1214 -16 
Q 841 59 441 206 
L 441 856 
Q 825 641 1194 531 
Q 1563 422 1919 422 
Q 2459 422 2753 634 
Q 3047 847 3047 1241 
Q 3047 1584 2836 1778 
Q 2625 1972 2144 2069 
L 1759 2144 
Q 1053 2284 737 2584 
Q 422 2884 422 3419 
Q 422 4038 858 4394 
Q 1294 4750 2059 4750 
Q 2388 4750 2728 4690 
Q 3069 4631 3425 4513 
z
" transform="scale(0.015625)"/>
        <path id="DejaVuSans-41" d="M 2188 4044 
L 1331 1722 
L 3047 1722 
L 2188 4044 
z
M 1831 4666 
L 2547 4666 
L 4325 0 
L 3669 0 
L 3244 1197 
L 1141 1197 
L 716 0 
L 50 0 
L 1831 4666 
z
" transform="scale(0.015625)"/>
        <path id="DejaVuSans-52" d="M 2841 2188 
Q 3044 2119 3236 1894 
Q 3428 1669 3622 1275 
L 4263 0 
L 3584 0 
L 2988 1197 
Q 2756 1666 2539 1819 
Q 2322 1972 1947 1972 
L 1259 1972 
L 1259 0 
L 628 0 
L 628 4666 
L 2053 4666 
Q 2853 4666 3247 4331 
Q 3641 3997 3641 3322 
Q 3641 2881 3436 2590 
Q 3231 2300 2841 2188 
z
M 1259 4147 
L 1259 2491 
L 2053 2491 
Q 2509 2491 2742 2702 
Q 2975 2913 2975 3322 
Q 2975 3731 2742 3939 
Q 2509 4147 2053 4147 
L 1259 4147 
z
" transform="scale(0.015625)"/>
       </defs>
       <use xlink:href="#DejaVuSans-53"/>
       <use xlink:href="#DejaVuSans-48" x="63.476562"/>
       <use xlink:href="#DejaVuSans-41" x="138.671875"/>
       <use xlink:href="#DejaVuSans-52" x="207.080078"/>
       <use xlink:href="#DejaVuSans-53" x="276.5625"/>
       <use xlink:href="#DejaVuSans-41" x="341.914062"/>
      </g>
     </g>
    </g>
    <g id="xtick_6">
     <g id="line2d_6"/>
     <g id="text_6">
      <!-- OS -->
      <g transform="translate(249.191146 130.698125) scale(0.08 -0.08)">
       <defs>
        <path id="DejaVuSans-4f" d="M 2522 4238 
Q 1834 4238 1429 3725 
Q 1025 3213 1025 2328 
Q 1025 1447 1429 934 
Q 1834 422 2522 422 
Q 3209 422 3611 934 
Q 4013 1447 4013 2328 
Q 4013 3213 3611 3725 
Q 3209 4238 2522 4238 
z
M 2522 4750 
Q 3503 4750 4090 4092 
Q 4678 3434 4678 2328 
Q 4678 1225 4090 567 
Q 3503 -91 2522 -91 
Q 1538 -91 948 565 
Q 359 1222 359 2328 
Q 359 3434 948 4092 
Q 1538 4750 2522 4750 
z
" transform="scale(0.015625)"/>
       </defs>
       <use xlink:href="#DejaVuSans-4f"/>
       <use xlink:href="#DejaVuSans-53" x="78.710938"/>
      </g>
     </g>
    </g>
    <g id="xtick_7">
     <g id="line2d_7"/>
     <g id="text_7">
      <!-- NS -->
      <g transform="translate(286.080938 130.698125) scale(0.08 -0.08)">
       <defs>
        <path id="DejaVuSans-4e" d="M 628 4666 
L 1478 4666 
L 3547 763 
L 3547 4666 
L 4159 4666 
L 4159 0 
L 3309 0 
L 1241 3903 
L 1241 0 
L 628 0 
L 628 4666 
z
" transform="scale(0.015625)"/>
       </defs>
       <use xlink:href="#DejaVuSans-4e"/>
       <use xlink:href="#DejaVuSans-53" x="74.804688"/>
      </g>
     </g>
    </g>
    <g id="xtick_8">
     <g id="line2d_8"/>
     <g id="text_8">
      <!-- QC -->
      <g transform="translate(322.404481 130.698125) scale(0.08 -0.08)">
       <use xlink:href="#DejaVuSans-51"/>
       <use xlink:href="#DejaVuSans-43" x="78.710938"/>
      </g>
     </g>
    </g>
    <g id="xtick_9">
     <g id="line2d_9"/>
     <g id="text_9">
      <!-- DQC-naïve -->
      <g transform="translate(343.688648 130.698125) scale(0.08 -0.08)">
       <defs>
        <path id="DejaVuSans-44" d="M 1259 4147 
L 1259 519 
L 2022 519 
Q 2988 519 3436 956 
Q 3884 1394 3884 2338 
Q 3884 3275 3436 3711 
Q 2988 4147 2022 4147 
L 1259 4147 
z
M 628 4666 
L 1925 4666 
Q 3281 4666 3915 4102 
Q 4550 3538 4550 2338 
Q 4550 1131 3912 565 
Q 3275 0 1925 0 
L 628 0 
L 628 4666 
z
" transform="scale(0.015625)"/>
        <path id="DejaVuSans-2d" d="M 313 2009 
L 1997 2009 
L 1997 1497 
L 313 1497 
L 313 2009 
z
" transform="scale(0.015625)"/>
        <path id="DejaVuSans-6e" d="M 3513 2113 
L 3513 0 
L 2938 0 
L 2938 2094 
Q 2938 2591 2744 2837 
Q 2550 3084 2163 3084 
Q 1697 3084 1428 2787 
Q 1159 2491 1159 1978 
L 1159 0 
L 581 0 
L 581 3500 
L 1159 3500 
L 1159 2956 
Q 1366 3272 1645 3428 
Q 1925 3584 2291 3584 
Q 2894 3584 3203 3211 
Q 3513 2838 3513 2113 
z
" transform="scale(0.015625)"/>
        <path id="DejaVuSans-61" d="M 2194 1759 
Q 1497 1759 1228 1600 
Q 959 1441 959 1056 
Q 959 750 1161 570 
Q 1363 391 1709 391 
Q 2188 391 2477 730 
Q 2766 1069 2766 1631 
L 2766 1759 
L 2194 1759 
z
M 3341 1997 
L 3341 0 
L 2766 0 
L 2766 531 
Q 2569 213 2275 61 
Q 1981 -91 1556 -91 
Q 1019 -91 701 211 
Q 384 513 384 1019 
Q 384 1609 779 1909 
Q 1175 2209 1959 2209 
L 2766 2209 
L 2766 2266 
Q 2766 2663 2505 2880 
Q 2244 3097 1772 3097 
Q 1472 3097 1187 3025 
Q 903 2953 641 2809 
L 641 3341 
Q 956 3463 1253 3523 
Q 1550 3584 1831 3584 
Q 2591 3584 2966 3190 
Q 3341 2797 3341 1997 
z
" transform="scale(0.015625)"/>
        <path id="DejaVuSans-ef" d="M 603 3500 
L 1178 3500 
L 1178 0 
L 603 0 
L 603 3500 
z
M 891 3584 
L 891 3584 
z
M 1182 4850 
L 1816 4850 
L 1816 4219 
L 1182 4219 
L 1182 4850 
z
M -40 4850 
L 594 4850 
L 594 4219 
L -40 4219 
L -40 4850 
z
" transform="scale(0.015625)"/>
        <path id="DejaVuSans-76" d="M 191 3500 
L 800 3500 
L 1894 563 
L 2988 3500 
L 3597 3500 
L 2284 0 
L 1503 0 
L 191 3500 
z
" transform="scale(0.015625)"/>
        <path id="DejaVuSans-65" d="M 3597 1894 
L 3597 1613 
L 953 1613 
Q 991 1019 1311 708 
Q 1631 397 2203 397 
Q 2534 397 2845 478 
Q 3156 559 3463 722 
L 3463 178 
Q 3153 47 2828 -22 
Q 2503 -91 2169 -91 
Q 1331 -91 842 396 
Q 353 884 353 1716 
Q 353 2575 817 3079 
Q 1281 3584 2069 3584 
Q 2775 3584 3186 3129 
Q 3597 2675 3597 1894 
z
M 3022 2063 
Q 3016 2534 2758 2815 
Q 2500 3097 2075 3097 
Q 1594 3097 1305 2825 
Q 1016 2553 972 2059 
L 3022 2063 
z
" transform="scale(0.015625)"/>
       </defs>
       <use xlink:href="#DejaVuSans-44"/>
       <use xlink:href="#DejaVuSans-51" x="77.001953"/>
       <use xlink:href="#DejaVuSans-43" x="155.712891"/>
       <use xlink:href="#DejaVuSans-2d" x="225.537109"/>
       <use xlink:href="#DejaVuSans-6e" x="261.621094"/>
       <use xlink:href="#DejaVuSans-61" x="325"/>
       <use xlink:href="#DejaVuSans-ef" x="386.279297"/>
       <use xlink:href="#DejaVuSans-76" x="414.0625"/>
       <use xlink:href="#DejaVuSans-65" x="473.242188"/>
      </g>
     </g>
    </g>
    <g id="xtick_10">
     <g id="line2d_10"/>
     <g id="text_10">
      <!-- DQC -->
      <g transform="translate(392.791565 130.698125) scale(0.08 -0.08)">
       <use xlink:href="#DejaVuSans-44"/>
       <use xlink:href="#DejaVuSans-51" x="77.001953"/>
       <use xlink:href="#DejaVuSans-43" x="155.712891"/>
      </g>
     </g>
    </g>
   </g>
   <g id="matplotlib.axis_2">
    <g id="ytick_1">
     <g id="line2d_11">
      <path d="M 41.2125 118.732526 
L 431.8125 118.732526 
" clip-path="url(#p700b9ddabb)" style="fill: none; stroke-dasharray: 2.96,1.28; stroke-dashoffset: 0; stroke: #b0b0b0; stroke-opacity: 0.3; stroke-width: 0.8"/>
     </g>
     <g id="line2d_12">
      <defs>
       <path id="m67107506e8" d="M 0 0 
L -3.5 0 
" style="stroke: #999999; stroke-width: 0.8"/>
      </defs>
      <g>
       <use xlink:href="#m67107506e8" x="41.2125" y="118.732526" style="fill: #999999; stroke: #999999; stroke-width: 0.8"/>
      </g>
     </g>
     <g id="text_11">
      <!-- 0 -->
      <g transform="translate(29.1225 121.771901) scale(0.08 -0.08)">
       <defs>
        <path id="DejaVuSans-30" d="M 2034 4250 
Q 1547 4250 1301 3770 
Q 1056 3291 1056 2328 
Q 1056 1369 1301 889 
Q 1547 409 2034 409 
Q 2525 409 2770 889 
Q 3016 1369 3016 2328 
Q 3016 3291 2770 3770 
Q 2525 4250 2034 4250 
z
M 2034 4750 
Q 2819 4750 3233 4129 
Q 3647 3509 3647 2328 
Q 3647 1150 3233 529 
Q 2819 -91 2034 -91 
Q 1250 -91 836 529 
Q 422 1150 422 2328 
Q 422 3509 836 4129 
Q 1250 4750 2034 4750 
z
" transform="scale(0.015625)"/>
       </defs>
       <use xlink:href="#DejaVuSans-30"/>
      </g>
     </g>
    </g>
    <g id="ytick_2">
     <g id="line2d_13">
      <path d="M 41.2125 97.033896 
L 431.8125 97.033896 
" clip-path="url(#p700b9ddabb)" style="fill: none; stroke-dasharray: 2.96,1.28; stroke-dashoffset: 0; stroke: #b0b0b0; stroke-opacity: 0.3; stroke-width: 0.8"/>
     </g>
     <g id="line2d_14">
      <g>
       <use xlink:href="#m67107506e8" x="41.2125" y="97.033896" style="fill: #999999; stroke: #999999; stroke-width: 0.8"/>
      </g>
     </g>
     <g id="text_12">
      <!-- 20 -->
      <g transform="translate(24.0325 100.073271) scale(0.08 -0.08)">
       <defs>
        <path id="DejaVuSans-32" d="M 1228 531 
L 3431 531 
L 3431 0 
L 469 0 
L 469 531 
Q 828 903 1448 1529 
Q 2069 2156 2228 2338 
Q 2531 2678 2651 2914 
Q 2772 3150 2772 3378 
Q 2772 3750 2511 3984 
Q 2250 4219 1831 4219 
Q 1534 4219 1204 4116 
Q 875 4013 500 3803 
L 500 4441 
Q 881 4594 1212 4672 
Q 1544 4750 1819 4750 
Q 2544 4750 2975 4387 
Q 3406 4025 3406 3419 
Q 3406 3131 3298 2873 
Q 3191 2616 2906 2266 
Q 2828 2175 2409 1742 
Q 1991 1309 1228 531 
z
" transform="scale(0.015625)"/>
       </defs>
       <use xlink:href="#DejaVuSans-32"/>
       <use xlink:href="#DejaVuSans-30" x="63.623047"/>
      </g>
     </g>
    </g>
    <g id="ytick_3">
     <g id="line2d_15">
      <path d="M 41.2125 75.335265 
L 431.8125 75.335265 
" clip-path="url(#p700b9ddabb)" style="fill: none; stroke-dasharray: 2.96,1.28; stroke-dashoffset: 0; stroke: #b0b0b0; stroke-opacity: 0.3; stroke-width: 0.8"/>
     </g>
     <g id="line2d_16">
      <g>
       <use xlink:href="#m67107506e8" x="41.2125" y="75.335265" style="fill: #999999; stroke: #999999; stroke-width: 0.8"/>
      </g>
     </g>
     <g id="text_13">
      <!-- 40 -->
      <g transform="translate(24.0325 78.37464) scale(0.08 -0.08)">
       <defs>
        <path id="DejaVuSans-34" d="M 2419 4116 
L 825 1625 
L 2419 1625 
L 2419 4116 
z
M 2253 4666 
L 3047 4666 
L 3047 1625 
L 3713 1625 
L 3713 1100 
L 3047 1100 
L 3047 0 
L 2419 0 
L 2419 1100 
L 313 1100 
L 313 1709 
L 2253 4666 
z
" transform="scale(0.015625)"/>
       </defs>
       <use xlink:href="#DejaVuSans-34"/>
       <use xlink:href="#DejaVuSans-30" x="63.623047"/>
      </g>
     </g>
    </g>
    <g id="ytick_4">
     <g id="line2d_17">
      <path d="M 41.2125 53.636635 
L 431.8125 53.636635 
" clip-path="url(#p700b9ddabb)" style="fill: none; stroke-dasharray: 2.96,1.28; stroke-dashoffset: 0; stroke: #b0b0b0; stroke-opacity: 0.3; stroke-width: 0.8"/>
     </g>
     <g id="line2d_18">
      <g>
       <use xlink:href="#m67107506e8" x="41.2125" y="53.636635" style="fill: #999999; stroke: #999999; stroke-width: 0.8"/>
      </g>
     </g>
     <g id="text_14">
      <!-- 60 -->
      <g transform="translate(24.0325 56.67601) scale(0.08 -0.08)">
       <defs>
        <path id="DejaVuSans-36" d="M 2113 2584 
Q 1688 2584 1439 2293 
Q 1191 2003 1191 1497 
Q 1191 994 1439 701 
Q 1688 409 2113 409 
Q 2538 409 2786 701 
Q 3034 994 3034 1497 
Q 3034 2003 2786 2293 
Q 2538 2584 2113 2584 
z
M 3366 4563 
L 3366 3988 
Q 3128 4100 2886 4159 
Q 2644 4219 2406 4219 
Q 1781 4219 1451 3797 
Q 1122 3375 1075 2522 
Q 1259 2794 1537 2939 
Q 1816 3084 2150 3084 
Q 2853 3084 3261 2657 
Q 3669 2231 3669 1497 
Q 3669 778 3244 343 
Q 2819 -91 2113 -91 
Q 1303 -91 875 529 
Q 447 1150 447 2328 
Q 447 3434 972 4092 
Q 1497 4750 2381 4750 
Q 2619 4750 2861 4703 
Q 3103 4656 3366 4563 
z
" transform="scale(0.015625)"/>
       </defs>
       <use xlink:href="#DejaVuSans-36"/>
       <use xlink:href="#DejaVuSans-30" x="63.623047"/>
      </g>
     </g>
    </g>
    <g id="ytick_5">
     <g id="line2d_19">
      <path d="M 41.2125 31.938005 
L 431.8125 31.938005 
" clip-path="url(#p700b9ddabb)" style="fill: none; stroke-dasharray: 2.96,1.28; stroke-dashoffset: 0; stroke: #b0b0b0; stroke-opacity: 0.3; stroke-width: 0.8"/>
     </g>
     <g id="line2d_20">
      <g>
       <use xlink:href="#m67107506e8" x="41.2125" y="31.938005" style="fill: #999999; stroke: #999999; stroke-width: 0.8"/>
      </g>
     </g>
     <g id="text_15">
      <!-- 80 -->
      <g transform="translate(24.0325 34.97738) scale(0.08 -0.08)">
       <defs>
        <path id="DejaVuSans-38" d="M 2034 2216 
Q 1584 2216 1326 1975 
Q 1069 1734 1069 1313 
Q 1069 891 1326 650 
Q 1584 409 2034 409 
Q 2484 409 2743 651 
Q 3003 894 3003 1313 
Q 3003 1734 2745 1975 
Q 2488 2216 2034 2216 
z
M 1403 2484 
Q 997 2584 770 2862 
Q 544 3141 544 3541 
Q 544 4100 942 4425 
Q 1341 4750 2034 4750 
Q 2731 4750 3128 4425 
Q 3525 4100 3525 3541 
Q 3525 3141 3298 2862 
Q 3072 2584 2669 2484 
Q 3125 2378 3379 2068 
Q 3634 1759 3634 1313 
Q 3634 634 3220 271 
Q 2806 -91 2034 -91 
Q 1263 -91 848 271 
Q 434 634 434 1313 
Q 434 1759 690 2068 
Q 947 2378 1403 2484 
z
M 1172 3481 
Q 1172 3119 1398 2916 
Q 1625 2713 2034 2713 
Q 2441 2713 2670 2916 
Q 2900 3119 2900 3481 
Q 2900 3844 2670 4047 
Q 2441 4250 2034 4250 
Q 1625 4250 1398 4047 
Q 1172 3844 1172 3481 
z
" transform="scale(0.015625)"/>
       </defs>
       <use xlink:href="#DejaVuSans-38"/>
       <use xlink:href="#DejaVuSans-30" x="63.623047"/>
      </g>
     </g>
    </g>
    <g id="ytick_6">
     <g id="line2d_21">
      <path d="M 41.2125 10.239375 
L 431.8125 10.239375 
" clip-path="url(#p700b9ddabb)" style="fill: none; stroke-dasharray: 2.96,1.28; stroke-dashoffset: 0; stroke: #b0b0b0; stroke-opacity: 0.3; stroke-width: 0.8"/>
     </g>
     <g id="line2d_22">
      <g>
       <use xlink:href="#m67107506e8" x="41.2125" y="10.239375" style="fill: #999999; stroke: #999999; stroke-width: 0.8"/>
      </g>
     </g>
     <g id="text_16">
      <!-- 100 -->
      <g transform="translate(18.9425 13.27875) scale(0.08 -0.08)">
       <defs>
        <path id="DejaVuSans-31" d="M 794 531 
L 1825 531 
L 1825 4091 
L 703 3866 
L 703 4441 
L 1819 4666 
L 2450 4666 
L 2450 531 
L 3481 531 
L 3481 0 
L 794 0 
L 794 531 
z
" transform="scale(0.015625)"/>
       </defs>
       <use xlink:href="#DejaVuSans-31"/>
       <use xlink:href="#DejaVuSans-30" x="63.623047"/>
       <use xlink:href="#DejaVuSans-30" x="127.246094"/>
      </g>
     </g>
    </g>
    <g id="text_17">
     <!-- Aggregated Score -->
     <g transform="translate(13.27875 101.5425) rotate(-90) scale(0.08 -0.08)">
      <defs>
       <path id="DejaVuSans-67" d="M 2906 1791 
Q 2906 2416 2648 2759 
Q 2391 3103 1925 3103 
Q 1463 3103 1205 2759 
Q 947 2416 947 1791 
Q 947 1169 1205 825 
Q 1463 481 1925 481 
Q 2391 481 2648 825 
Q 2906 1169 2906 1791 
z
M 3481 434 
Q 3481 -459 3084 -895 
Q 2688 -1331 1869 -1331 
Q 1566 -1331 1297 -1286 
Q 1028 -1241 775 -1147 
L 775 -588 
Q 1028 -725 1275 -790 
Q 1522 -856 1778 -856 
Q 2344 -856 2625 -561 
Q 2906 -266 2906 331 
L 2906 616 
Q 2728 306 2450 153 
Q 2172 0 1784 0 
Q 1141 0 747 490 
Q 353 981 353 1791 
Q 353 2603 747 3093 
Q 1141 3584 1784 3584 
Q 2172 3584 2450 3431 
Q 2728 3278 2906 2969 
L 2906 3500 
L 3481 3500 
L 3481 434 
z
" transform="scale(0.015625)"/>
       <path id="DejaVuSans-72" d="M 2631 2963 
Q 2534 3019 2420 3045 
Q 2306 3072 2169 3072 
Q 1681 3072 1420 2755 
Q 1159 2438 1159 1844 
L 1159 0 
L 581 0 
L 581 3500 
L 1159 3500 
L 1159 2956 
Q 1341 3275 1631 3429 
Q 1922 3584 2338 3584 
Q 2397 3584 2469 3576 
Q 2541 3569 2628 3553 
L 2631 2963 
z
" transform="scale(0.015625)"/>
       <path id="DejaVuSans-74" d="M 1172 4494 
L 1172 3500 
L 2356 3500 
L 2356 3053 
L 1172 3053 
L 1172 1153 
Q 1172 725 1289 603 
Q 1406 481 1766 481 
L 2356 481 
L 2356 0 
L 1766 0 
Q 1100 0 847 248 
Q 594 497 594 1153 
L 594 3053 
L 172 3053 
L 172 3500 
L 594 3500 
L 594 4494 
L 1172 4494 
z
" transform="scale(0.015625)"/>
       <path id="DejaVuSans-64" d="M 2906 2969 
L 2906 4863 
L 3481 4863 
L 3481 0 
L 2906 0 
L 2906 525 
Q 2725 213 2448 61 
Q 2172 -91 1784 -91 
Q 1150 -91 751 415 
Q 353 922 353 1747 
Q 353 2572 751 3078 
Q 1150 3584 1784 3584 
Q 2172 3584 2448 3432 
Q 2725 3281 2906 2969 
z
M 947 1747 
Q 947 1113 1208 752 
Q 1469 391 1925 391 
Q 2381 391 2643 752 
Q 2906 1113 2906 1747 
Q 2906 2381 2643 2742 
Q 2381 3103 1925 3103 
Q 1469 3103 1208 2742 
Q 947 2381 947 1747 
z
" transform="scale(0.015625)"/>
       <path id="DejaVuSans-20" transform="scale(0.015625)"/>
       <path id="DejaVuSans-63" d="M 3122 3366 
L 3122 2828 
Q 2878 2963 2633 3030 
Q 2388 3097 2138 3097 
Q 1578 3097 1268 2742 
Q 959 2388 959 1747 
Q 959 1106 1268 751 
Q 1578 397 2138 397 
Q 2388 397 2633 464 
Q 2878 531 3122 666 
L 3122 134 
Q 2881 22 2623 -34 
Q 2366 -91 2075 -91 
Q 1284 -91 818 406 
Q 353 903 353 1747 
Q 353 2603 823 3093 
Q 1294 3584 2113 3584 
Q 2378 3584 2631 3529 
Q 2884 3475 3122 3366 
z
" transform="scale(0.015625)"/>
       <path id="DejaVuSans-6f" d="M 1959 3097 
Q 1497 3097 1228 2736 
Q 959 2375 959 1747 
Q 959 1119 1226 758 
Q 1494 397 1959 397 
Q 2419 397 2687 759 
Q 2956 1122 2956 1747 
Q 2956 2369 2687 2733 
Q 2419 3097 1959 3097 
z
M 1959 3584 
Q 2709 3584 3137 3096 
Q 3566 2609 3566 1747 
Q 3566 888 3137 398 
Q 2709 -91 1959 -91 
Q 1206 -91 779 398 
Q 353 888 353 1747 
Q 353 2609 779 3096 
Q 1206 3584 1959 3584 
z
" transform="scale(0.015625)"/>
      </defs>
      <use xlink:href="#DejaVuSans-41"/>
      <use xlink:href="#DejaVuSans-67" x="68.408203"/>
      <use xlink:href="#DejaVuSans-67" x="131.884766"/>
      <use xlink:href="#DejaVuSans-72" x="195.361328"/>
      <use xlink:href="#DejaVuSans-65" x="234.224609"/>
      <use xlink:href="#DejaVuSans-67" x="295.748047"/>
      <use xlink:href="#DejaVuSans-61" x="359.224609"/>
      <use xlink:href="#DejaVuSans-74" x="420.503906"/>
      <use xlink:href="#DejaVuSans-65" x="459.712891"/>
      <use xlink:href="#DejaVuSans-64" x="521.236328"/>
      <use xlink:href="#DejaVuSans-20" x="584.712891"/>
      <use xlink:href="#DejaVuSans-53" x="616.5"/>
      <use xlink:href="#DejaVuSans-63" x="679.976562"/>
      <use xlink:href="#DejaVuSans-6f" x="734.957031"/>
      <use xlink:href="#DejaVuSans-72" x="796.138672"/>
      <use xlink:href="#DejaVuSans-65" x="835.001953"/>
     </g>
    </g>
   </g>
   <g id="LineCollection_1">
    <path d="M 71.21156 103.350608 
L 71.21156 101.614717 
" clip-path="url(#p700b9ddabb)" style="fill: none; stroke: #999999; stroke-width: 1.2"/>
   </g>
   <g id="LineCollection_2">
    <path d="M 107.945102 95.683759 
L 107.945102 94.45417 
" clip-path="url(#p700b9ddabb)" style="fill: none; stroke: #999999; stroke-width: 1.2"/>
   </g>
   <g id="LineCollection_3">
    <path d="M 144.678644 92.838827 
L 144.678644 91.127046 
" clip-path="url(#p700b9ddabb)" style="fill: none; stroke: #999999; stroke-width: 1.2"/>
   </g>
   <g id="LineCollection_4">
    <path d="M 181.412187 100.047594 
L 181.412187 96.913348 
" clip-path="url(#p700b9ddabb)" style="fill: none; stroke: #999999; stroke-width: 1.2"/>
   </g>
   <g id="LineCollection_5">
    <path d="M 218.145729 71.598279 
L 218.145729 69.838279 
" clip-path="url(#p700b9ddabb)" style="fill: none; stroke: #999999; stroke-width: 1.2"/>
   </g>
   <g id="LineCollection_6">
    <path d="M 254.879271 104.454827 
L 254.879271 102.19817 
" clip-path="url(#p700b9ddabb)" style="fill: none; stroke: #999999; stroke-width: 1.2"/>
   </g>
   <g id="LineCollection_7">
    <path d="M 291.612813 47.958827 
L 291.612813 41.753019 
" clip-path="url(#p700b9ddabb)" style="fill: none; stroke: #999999; stroke-width: 1.2"/>
   </g>
   <g id="LineCollection_8">
    <path d="M 328.346356 93.301731 
L 328.346356 89.30195 
" clip-path="url(#p700b9ddabb)" style="fill: none; stroke: #999999; stroke-width: 1.2"/>
   </g>
   <g id="LineCollection_9">
    <path d="M 365.079898 82.416252 
L 365.079898 76.188745 
" clip-path="url(#p700b9ddabb)" style="fill: none; stroke: #00a89d; stroke-opacity: 0.631373; stroke-width: 1.2"/>
   </g>
   <g id="LineCollection_10">
    <path d="M 401.81344 30.071923 
L 401.81344 28.458991 
" clip-path="url(#p700b9ddabb)" style="fill: none; stroke: #00a89d; stroke-width: 1.2"/>
   </g>
   <g id="patch_13">
    <path d="M 41.2125 121.119375 
L 41.2125 10.239375 
" style="fill: none; stroke: #999999; stroke-width: 0.8; stroke-linejoin: miter; stroke-linecap: square"/>
   </g>
   <g id="patch_14">
    <path d="M 41.2125 121.119375 
L 431.8125 121.119375 
" style="fill: none; stroke: #999999; stroke-width: 0.8; stroke-linejoin: miter; stroke-linecap: square"/>
   </g>
   <g id="text_18">
    <!-- 14 -->
    <g transform="translate(66.12156 98.866036) scale(0.08 -0.08)">
     <use xlink:href="#DejaVuSans-31"/>
     <use xlink:href="#DejaVuSans-34" x="63.623047"/>
    </g>
   </g>
   <g id="text_19">
    <!-- 21 -->
    <g transform="translate(102.855102 91.705488) scale(0.08 -0.08)">
     <use xlink:href="#DejaVuSans-32"/>
     <use xlink:href="#DejaVuSans-31" x="63.623047"/>
    </g>
   </g>
   <g id="text_20">
    <!-- 24 -->
    <g transform="translate(139.588644 88.378365) scale(0.08 -0.08)">
     <use xlink:href="#DejaVuSans-32"/>
     <use xlink:href="#DejaVuSans-34" x="63.623047"/>
    </g>
   </g>
   <g id="text_21">
    <!-- 18 -->
    <g transform="translate(176.322187 94.164666) scale(0.08 -0.08)">
     <use xlink:href="#DejaVuSans-31"/>
     <use xlink:href="#DejaVuSans-38" x="63.623047"/>
    </g>
   </g>
   <g id="text_22">
    <!-- 44 -->
    <g transform="translate(213.055729 67.089598) scale(0.08 -0.08)">
     <use xlink:href="#DejaVuSans-34"/>
     <use xlink:href="#DejaVuSans-34" x="63.623047"/>
    </g>
   </g>
   <g id="text_23">
    <!-- 14 -->
    <g transform="translate(249.789271 99.449488) scale(0.08 -0.08)">
     <use xlink:href="#DejaVuSans-31"/>
     <use xlink:href="#DejaVuSans-34" x="63.623047"/>
    </g>
   </g>
   <g id="text_24">
    <!-- 68 -->
    <g transform="translate(286.522813 39.004337) scale(0.08 -0.08)">
     <use xlink:href="#DejaVuSans-36"/>
     <use xlink:href="#DejaVuSans-38" x="63.623047"/>
    </g>
   </g>
   <g id="text_25">
    <!-- 25 -->
    <g transform="translate(323.256356 86.553269) scale(0.08 -0.08)">
     <defs>
      <path id="DejaVuSans-35" d="M 691 4666 
L 3169 4666 
L 3169 4134 
L 1269 4134 
L 1269 2991 
Q 1406 3038 1543 3061 
Q 1681 3084 1819 3084 
Q 2600 3084 3056 2656 
Q 3513 2228 3513 1497 
Q 3513 744 3044 326 
Q 2575 -91 1722 -91 
Q 1428 -91 1123 -41 
Q 819 9 494 109 
L 494 744 
Q 775 591 1075 516 
Q 1375 441 1709 441 
Q 2250 441 2565 725 
Q 2881 1009 2881 1497 
Q 2881 1984 2565 2268 
Q 2250 2553 1709 2553 
Q 1456 2553 1204 2497 
Q 953 2441 691 2322 
L 691 4666 
z
" transform="scale(0.015625)"/>
     </defs>
     <use xlink:href="#DejaVuSans-32"/>
     <use xlink:href="#DejaVuSans-35" x="63.623047"/>
    </g>
   </g>
   <g id="text_26">
    <!-- 36 -->
    <g transform="translate(359.989898 73.440063) scale(0.08 -0.08)">
     <defs>
      <path id="DejaVuSans-33" d="M 2597 2516 
Q 3050 2419 3304 2112 
Q 3559 1806 3559 1356 
Q 3559 666 3084 287 
Q 2609 -91 1734 -91 
Q 1441 -91 1130 -33 
Q 819 25 488 141 
L 488 750 
Q 750 597 1062 519 
Q 1375 441 1716 441 
Q 2309 441 2620 675 
Q 2931 909 2931 1356 
Q 2931 1769 2642 2001 
Q 2353 2234 1838 2234 
L 1294 2234 
L 1294 2753 
L 1863 2753 
Q 2328 2753 2575 2939 
Q 2822 3125 2822 3475 
Q 2822 3834 2567 4026 
Q 2313 4219 1838 4219 
Q 1578 4219 1281 4162 
Q 984 4106 628 3988 
L 628 4550 
Q 988 4650 1302 4700 
Q 1616 4750 1894 4750 
Q 2613 4750 3031 4423 
Q 3450 4097 3450 3541 
Q 3450 3153 3228 2886 
Q 3006 2619 2597 2516 
z
" transform="scale(0.015625)"/>
     </defs>
     <use xlink:href="#DejaVuSans-33"/>
     <use xlink:href="#DejaVuSans-36" x="63.623047"/>
    </g>
   </g>
   <g id="text_27">
    <!-- 82 -->
    <g transform="translate(396.72344 25.71031) scale(0.08 -0.08)">
     <use xlink:href="#DejaVuSans-38"/>
     <use xlink:href="#DejaVuSans-32" x="63.623047"/>
    </g>
   </g>
  </g>
 </g>
 <defs>
  <clipPath id="p700b9ddabb">
   <rect x="41.2125" y="10.239375" width="390.6" height="110.88"/>
  </clipPath>
 </defs>
</svg>
