<?xml version="1.0" encoding="utf-8" standalone="no"?>
<!DOCTYPE svg PUBLIC "-//W3C//DTD SVG 1.1//EN"
  "http://www.w3.org/Graphics/SVG/1.1/DTD/svg11.dtd">
<svg xmlns:xlink="http://www.w3.org/1999/xlink" width="253.39625pt" height="217.74825pt" viewBox="0 0 253.39625 217.74825" xmlns="http://www.w3.org/2000/svg" version="1.1">
 <metadata>
  <rdf:RDF xmlns:dc="http://purl.org/dc/elements/1.1/" xmlns:cc="http://creativecommons.org/ns#" xmlns:rdf="http://www.w3.org/1999/02/22-rdf-syntax-ns#">
   <cc:Work>
    <dc:type rdf:resource="http://purl.org/dc/dcmitype/StillImage"/>
    <dc:date>2025-07-09T20:50:50.827808</dc:date>
    <dc:format>image/svg+xml</dc:format>
    <dc:creator>
     <cc:Agent>
      <dc:title>Matplotlib v3.9.1, https://matplotlib.org/</dc:title>
     </cc:Agent>
    </dc:creator>
   </cc:Work>
  </rdf:RDF>
 </metadata>
 <defs>
  <style type="text/css">*{stroke-linejoin: round; stroke-linecap: butt}</style>
 </defs>
 <g id="figure_1">
  <g id="patch_1">
   <path d="M 0 217.74825 
L 253.39625 217.74825 
L 253.39625 0 
L 0 0 
z
" style="fill: #ffffff"/>
  </g>
  <g id="axes_1">
   <g id="patch_2">
    <path d="M 44.749063 177.550125 
L 240.049062 177.550125 
L 240.049062 22.318125 
L 44.749063 22.318125 
z
" style="fill: #ffffff"/>
   </g>
   <g id="PolyCollection_1">
    <defs>
     <path id="m8bdf79b288" d="M 142.399063 -47.254125 
L 142.399063 -47.254125 
L 151.699063 -103.047328 
L 160.999063 -112.778963 
L 170.299063 -117.859283 
L 179.599063 -121.178426 
L 188.899063 -123.955667 
L 198.199063 -127.681235 
L 207.499063 -129.419834 
L 216.799063 -130.323002 
L 226.099063 -132.287392 
L 235.399063 -131.903546 
L 235.399063 -137.119341 
L 235.399063 -137.119341 
L 226.099063 -135.019475 
L 216.799063 -134.725946 
L 207.499063 -132.513184 
L 198.199063 -131.474541 
L 188.899063 -127.884448 
L 179.599063 -125.062048 
L 170.299063 -121.471955 
L 160.999063 -115.511047 
L 151.699063 -104.469818 
L 142.399063 -47.254125 
z
" style="stroke: #66add6; stroke-opacity: 0.2"/>
    </defs>
    <g clip-path="url(#p3c6e7ed3f1)">
     <use xlink:href="#m8bdf79b288" x="0" y="217.74825" style="fill: #66add6; fill-opacity: 0.2; stroke: #66add6; stroke-opacity: 0.2"/>
    </g>
   </g>
   <g id="PolyCollection_2">
    <defs>
     <path id="m72c3996cf3" d="M 142.399063 -47.254125 
L 142.399063 -47.254125 
L 151.699063 -72.068666 
L 160.999063 -112.506884 
L 170.299063 -123.504083 
L 179.599063 -126.98128 
L 188.899063 -129.80368 
L 198.199063 -134.161466 
L 207.499063 -135.945223 
L 216.799063 -137.887034 
L 226.099063 -139.309523 
L 235.399063 -140.122375 
L 235.399063 -144.276947 
L 235.399063 -144.276947 
L 226.099063 -143.102829 
L 216.799063 -140.551379 
L 207.499063 -138.067667 
L 198.199063 -137.841875 
L 188.899063 -133.574407 
L 179.599063 -129.103725 
L 170.299063 -125.310419 
L 160.999063 -113.930503 
L 151.699063 -76.313555 
L 142.399063 -47.254125 
z
" style="stroke: #66add6; stroke-opacity: 0.2"/>
    </defs>
    <g clip-path="url(#p3c6e7ed3f1)">
     <use xlink:href="#m72c3996cf3" x="0" y="217.74825" style="fill: #66add6; fill-opacity: 0.2; stroke: #66add6; stroke-opacity: 0.2"/>
    </g>
   </g>
   <g id="PolyCollection_3">
    <defs>
     <path id="mcec36316c3" d="M 49.399062 -47.254125 
L 49.399062 -47.254125 
L 58.699063 -55.100397 
L 67.999063 -72.373485 
L 77.299063 -89.420781 
L 86.599063 -89.420781 
L 95.899063 -93.400365 
L 105.199063 -92.214957 
L 114.499063 -95.065581 
L 123.799063 -96.702573 
L 133.099063 -99.129837 
L 142.399063 -97.746861 
L 151.699063 -112.338669 
L 160.999063 -117.023853 
L 170.299063 -121.765485 
L 179.599063 -122.555757 
L 188.899063 -125.349933 
L 198.199063 -123.684717 
L 207.499063 -124.841901 
L 216.799063 -127.269165 
L 226.099063 -129.103725 
L 235.399063 -127.974765 
L 235.399063 -131.700333 
L 235.399063 -131.700333 
L 226.099063 -130.712493 
L 216.799063 -129.047277 
L 207.499063 -129.893997 
L 198.199063 -130.063341 
L 188.899063 -126.196653 
L 179.599063 -127.071597 
L 170.299063 -124.249197 
L 160.999063 -121.201005 
L 151.699063 -117.052077 
L 142.399063 -101.359533 
L 133.099063 -101.444205 
L 123.799063 -99.016941 
L 114.499063 -99.355629 
L 105.199063 -101.190189 
L 95.899063 -95.912301 
L 86.599063 -93.485037 
L 77.299063 -96.194541 
L 67.999063 -78.977901 
L 58.699063 -56.539821 
L 49.399062 -47.254125 
z
" style="stroke: #66add6; stroke-opacity: 0.2"/>
    </defs>
    <g clip-path="url(#p3c6e7ed3f1)">
     <use xlink:href="#mcec36316c3" x="0" y="217.74825" style="fill: #66add6; fill-opacity: 0.2; stroke: #66add6; stroke-opacity: 0.2"/>
    </g>
   </g>
   <g id="PolyCollection_4">
    <defs>
     <path id="mea09f77886" d="M 49.399062 -47.254125 
L 49.399062 -47.254125 
L 58.699063 -69.946221 
L 67.999063 -97.763795 
L 77.299063 -105.914887 
L 86.599063 -111.356474 
L 95.899063 -113.749869 
L 105.199063 -114.314349 
L 114.499063 -113.501498 
L 123.799063 -114.336928 
L 133.099063 -116.707744 
L 142.399063 -118.491501 
L 151.699063 -126.100691 
L 160.999063 -131.316487 
L 170.299063 -131.203591 
L 179.599063 -131.722912 
L 188.899063 -132.35513 
L 198.199063 -133.145402 
L 207.499063 -131.610016 
L 216.799063 -134.342099 
L 226.099063 -132.151917 
L 235.399063 -134.838842 
L 235.399063 -136.261331 
L 235.399063 -136.261331 
L 226.099063 -135.44848 
L 216.799063 -136.509703 
L 207.499063 -135.222688 
L 198.199063 -134.996896 
L 188.899063 -134.590471 
L 179.599063 -134.229203 
L 170.299063 -135.154951 
L 160.999063 -133.890515 
L 151.699063 -130.66169 
L 142.399063 -121.155847 
L 133.099063 -120.478471 
L 123.799063 -120.162362 
L 114.499063 -118.559239 
L 105.199063 -117.227066 
L 95.899063 -116.843219 
L 86.599063 -115.398151 
L 77.299063 -107.450272 
L 67.999063 -100.292666 
L 58.699063 -73.64921 
L 49.399062 -47.254125 
z
" style="stroke: #66add6; stroke-opacity: 0.2"/>
    </defs>
    <g clip-path="url(#p3c6e7ed3f1)">
     <use xlink:href="#mea09f77886" x="0" y="217.74825" style="fill: #66add6; fill-opacity: 0.2; stroke: #66add6; stroke-opacity: 0.2"/>
    </g>
   </g>
   <g id="PolyCollection_5">
    <defs>
     <path id="mfd62565a9c" d="M 49.399062 -47.254125 
L 49.399062 -47.254125 
L 58.699063 -92.751213 
L 67.999063 -101.331309 
L 77.299063 -102.121581 
L 86.599063 -107.540589 
L 95.899063 -105.395565 
L 105.199063 -110.362989 
L 114.499063 -115.443309 
L 123.799063 -116.910957 
L 133.099063 -116.798061 
L 142.399063 -116.572269 
L 151.699063 -142.086765 
L 160.999063 -155.747181 
L 170.299063 -158.005101 
L 179.599063 -158.456685 
L 188.899063 -160.263021 
L 198.199063 -162.633837 
L 207.499063 -163.875693 
L 216.799063 -166.923885 
L 226.099063 -168.165741 
L 235.399063 -168.052845 
L 235.399063 -170.536557 
L 235.399063 -170.536557 
L 226.099063 -169.520493 
L 216.799063 -168.504429 
L 207.499063 -168.617325 
L 198.199063 -164.440173 
L 188.899063 -163.762797 
L 179.599063 -163.085421 
L 170.299063 -161.730669 
L 160.999063 -159.585645 
L 151.699063 -147.392877 
L 142.399063 -119.846253 
L 133.099063 -120.636525 
L 123.799063 -120.072045 
L 114.499063 -119.959149 
L 105.199063 -120.749421 
L 95.899063 -115.104621 
L 86.599063 -111.830637 
L 77.299063 -113.185389 
L 67.999063 -104.943981 
L 58.699063 -98.283117 
L 49.399062 -47.254125 
z
" style="stroke: #cb297b; stroke-opacity: 0.2"/>
    </defs>
    <g clip-path="url(#p3c6e7ed3f1)">
     <use xlink:href="#mfd62565a9c" x="0" y="217.74825" style="fill: #cb297b; fill-opacity: 0.2; stroke: #cb297b; stroke-opacity: 0.2"/>
    </g>
   </g>
   <g id="patch_3">
    <path d="M 44.749063 177.550125 
L 142.399063 177.550125 
L 142.399063 22.318125 
L 44.749063 22.318125 
z
" clip-path="url(#p3c6e7ed3f1)" style="fill: #e0e0e0"/>
   </g>
   <g id="patch_4">
    <path d="M 142.399063 177.550125 
L 240.049062 177.550125 
L 240.049062 22.318125 
L 142.399063 22.318125 
z
" clip-path="url(#p3c6e7ed3f1)" style="fill: #fafafa"/>
   </g>
   <g id="matplotlib.axis_1">
    <g id="xtick_1">
     <g id="line2d_1">
      <path d="M 49.399062 177.550125 
L 49.399062 22.318125 
" clip-path="url(#p3c6e7ed3f1)" style="fill: none; stroke: #d3d3d3; stroke-opacity: 0.5; stroke-linecap: square"/>
     </g>
     <g id="line2d_2">
      <defs>
       <path id="m6988bf15bf" d="M 0 0 
L 0 3.5 
" style="stroke: #000000; stroke-width: 0.8"/>
      </defs>
      <g>
       <use xlink:href="#m6988bf15bf" x="49.399062" y="177.550125" style="stroke: #000000; stroke-width: 0.8"/>
      </g>
     </g>
     <g id="text_1">
      <!-- 0.0 -->
      <g transform="translate(41.4475 192.148562) scale(0.1 -0.1)">
       <defs>
        <path id="DejaVuSans-30" d="M 2034 4250 
Q 1547 4250 1301 3770 
Q 1056 3291 1056 2328 
Q 1056 1369 1301 889 
Q 1547 409 2034 409 
Q 2525 409 2770 889 
Q 3016 1369 3016 2328 
Q 3016 3291 2770 3770 
Q 2525 4250 2034 4250 
z
M 2034 4750 
Q 2819 4750 3233 4129 
Q 3647 3509 3647 2328 
Q 3647 1150 3233 529 
Q 2819 -91 2034 -91 
Q 1250 -91 836 529 
Q 422 1150 422 2328 
Q 422 3509 836 4129 
Q 1250 4750 2034 4750 
z
" transform="scale(0.015625)"/>
        <path id="DejaVuSans-2e" d="M 684 794 
L 1344 794 
L 1344 0 
L 684 0 
L 684 794 
z
" transform="scale(0.015625)"/>
       </defs>
       <use xlink:href="#DejaVuSans-30"/>
       <use xlink:href="#DejaVuSans-2e" x="63.623047"/>
       <use xlink:href="#DejaVuSans-30" x="95.410156"/>
      </g>
     </g>
    </g>
    <g id="xtick_2">
     <g id="line2d_3">
      <path d="M 95.899063 177.550125 
L 95.899063 22.318125 
" clip-path="url(#p3c6e7ed3f1)" style="fill: none; stroke: #d3d3d3; stroke-opacity: 0.5; stroke-linecap: square"/>
     </g>
     <g id="line2d_4">
      <g>
       <use xlink:href="#m6988bf15bf" x="95.899063" y="177.550125" style="stroke: #000000; stroke-width: 0.8"/>
      </g>
     </g>
     <g id="text_2">
      <!-- 0.5 -->
      <g transform="translate(87.9475 192.148562) scale(0.1 -0.1)">
       <defs>
        <path id="DejaVuSans-35" d="M 691 4666 
L 3169 4666 
L 3169 4134 
L 1269 4134 
L 1269 2991 
Q 1406 3038 1543 3061 
Q 1681 3084 1819 3084 
Q 2600 3084 3056 2656 
Q 3513 2228 3513 1497 
Q 3513 744 3044 326 
Q 2575 -91 1722 -91 
Q 1428 -91 1123 -41 
Q 819 9 494 109 
L 494 744 
Q 775 591 1075 516 
Q 1375 441 1709 441 
Q 2250 441 2565 725 
Q 2881 1009 2881 1497 
Q 2881 1984 2565 2268 
Q 2250 2553 1709 2553 
Q 1456 2553 1204 2497 
Q 953 2441 691 2322 
L 691 4666 
z
" transform="scale(0.015625)"/>
       </defs>
       <use xlink:href="#DejaVuSans-30"/>
       <use xlink:href="#DejaVuSans-2e" x="63.623047"/>
       <use xlink:href="#DejaVuSans-35" x="95.410156"/>
      </g>
     </g>
    </g>
    <g id="xtick_3">
     <g id="line2d_5">
      <path d="M 142.399063 177.550125 
L 142.399063 22.318125 
" clip-path="url(#p3c6e7ed3f1)" style="fill: none; stroke: #d3d3d3; stroke-opacity: 0.5; stroke-linecap: square"/>
     </g>
     <g id="line2d_6">
      <g>
       <use xlink:href="#m6988bf15bf" x="142.399063" y="177.550125" style="stroke: #000000; stroke-width: 0.8"/>
      </g>
     </g>
     <g id="text_3">
      <!-- 1.0 -->
      <g transform="translate(134.4475 192.148562) scale(0.1 -0.1)">
       <defs>
        <path id="DejaVuSans-31" d="M 794 531 
L 1825 531 
L 1825 4091 
L 703 3866 
L 703 4441 
L 1819 4666 
L 2450 4666 
L 2450 531 
L 3481 531 
L 3481 0 
L 794 0 
L 794 531 
z
" transform="scale(0.015625)"/>
       </defs>
       <use xlink:href="#DejaVuSans-31"/>
       <use xlink:href="#DejaVuSans-2e" x="63.623047"/>
       <use xlink:href="#DejaVuSans-30" x="95.410156"/>
      </g>
     </g>
    </g>
    <g id="xtick_4">
     <g id="line2d_7">
      <path d="M 188.899063 177.550125 
L 188.899063 22.318125 
" clip-path="url(#p3c6e7ed3f1)" style="fill: none; stroke: #d3d3d3; stroke-opacity: 0.5; stroke-linecap: square"/>
     </g>
     <g id="line2d_8">
      <g>
       <use xlink:href="#m6988bf15bf" x="188.899063" y="177.550125" style="stroke: #000000; stroke-width: 0.8"/>
      </g>
     </g>
     <g id="text_4">
      <!-- 1.5 -->
      <g transform="translate(180.9475 192.148562) scale(0.1 -0.1)">
       <use xlink:href="#DejaVuSans-31"/>
       <use xlink:href="#DejaVuSans-2e" x="63.623047"/>
       <use xlink:href="#DejaVuSans-35" x="95.410156"/>
      </g>
     </g>
    </g>
    <g id="xtick_5">
     <g id="line2d_9">
      <path d="M 235.399063 177.550125 
L 235.399063 22.318125 
" clip-path="url(#p3c6e7ed3f1)" style="fill: none; stroke: #d3d3d3; stroke-opacity: 0.5; stroke-linecap: square"/>
     </g>
     <g id="line2d_10">
      <g>
       <use xlink:href="#m6988bf15bf" x="235.399063" y="177.550125" style="stroke: #000000; stroke-width: 0.8"/>
      </g>
     </g>
     <g id="text_5">
      <!-- 2.0 -->
      <g transform="translate(227.4475 192.148562) scale(0.1 -0.1)">
       <defs>
        <path id="DejaVuSans-32" d="M 1228 531 
L 3431 531 
L 3431 0 
L 469 0 
L 469 531 
Q 828 903 1448 1529 
Q 2069 2156 2228 2338 
Q 2531 2678 2651 2914 
Q 2772 3150 2772 3378 
Q 2772 3750 2511 3984 
Q 2250 4219 1831 4219 
Q 1534 4219 1204 4116 
Q 875 4013 500 3803 
L 500 4441 
Q 881 4594 1212 4672 
Q 1544 4750 1819 4750 
Q 2544 4750 2975 4387 
Q 3406 4025 3406 3419 
Q 3406 3131 3298 2873 
Q 3191 2616 2906 2266 
Q 2828 2175 2409 1742 
Q 1991 1309 1228 531 
z
" transform="scale(0.015625)"/>
       </defs>
       <use xlink:href="#DejaVuSans-32"/>
       <use xlink:href="#DejaVuSans-2e" x="63.623047"/>
       <use xlink:href="#DejaVuSans-30" x="95.410156"/>
      </g>
     </g>
    </g>
    <g id="text_6">
     <!-- Steps ($\times 10^6$) -->
     <g transform="translate(106.704062 208.23825) scale(0.11 -0.11)">
      <defs>
       <path id="DejaVuSans-53" d="M 3425 4513 
L 3425 3897 
Q 3066 4069 2747 4153 
Q 2428 4238 2131 4238 
Q 1616 4238 1336 4038 
Q 1056 3838 1056 3469 
Q 1056 3159 1242 3001 
Q 1428 2844 1947 2747 
L 2328 2669 
Q 3034 2534 3370 2195 
Q 3706 1856 3706 1288 
Q 3706 609 3251 259 
Q 2797 -91 1919 -91 
Q 1588 -91 1214 -16 
Q 841 59 441 206 
L 441 856 
Q 825 641 1194 531 
Q 1563 422 1919 422 
Q 2459 422 2753 634 
Q 3047 847 3047 1241 
Q 3047 1584 2836 1778 
Q 2625 1972 2144 2069 
L 1759 2144 
Q 1053 2284 737 2584 
Q 422 2884 422 3419 
Q 422 4038 858 4394 
Q 1294 4750 2059 4750 
Q 2388 4750 2728 4690 
Q 3069 4631 3425 4513 
z
" transform="scale(0.015625)"/>
       <path id="DejaVuSans-74" d="M 1172 4494 
L 1172 3500 
L 2356 3500 
L 2356 3053 
L 1172 3053 
L 1172 1153 
Q 1172 725 1289 603 
Q 1406 481 1766 481 
L 2356 481 
L 2356 0 
L 1766 0 
Q 1100 0 847 248 
Q 594 497 594 1153 
L 594 3053 
L 172 3053 
L 172 3500 
L 594 3500 
L 594 4494 
L 1172 4494 
z
" transform="scale(0.015625)"/>
       <path id="DejaVuSans-65" d="M 3597 1894 
L 3597 1613 
L 953 1613 
Q 991 1019 1311 708 
Q 1631 397 2203 397 
Q 2534 397 2845 478 
Q 3156 559 3463 722 
L 3463 178 
Q 3153 47 2828 -22 
Q 2503 -91 2169 -91 
Q 1331 -91 842 396 
Q 353 884 353 1716 
Q 353 2575 817 3079 
Q 1281 3584 2069 3584 
Q 2775 3584 3186 3129 
Q 3597 2675 3597 1894 
z
M 3022 2063 
Q 3016 2534 2758 2815 
Q 2500 3097 2075 3097 
Q 1594 3097 1305 2825 
Q 1016 2553 972 2059 
L 3022 2063 
z
" transform="scale(0.015625)"/>
       <path id="DejaVuSans-70" d="M 1159 525 
L 1159 -1331 
L 581 -1331 
L 581 3500 
L 1159 3500 
L 1159 2969 
Q 1341 3281 1617 3432 
Q 1894 3584 2278 3584 
Q 2916 3584 3314 3078 
Q 3713 2572 3713 1747 
Q 3713 922 3314 415 
Q 2916 -91 2278 -91 
Q 1894 -91 1617 61 
Q 1341 213 1159 525 
z
M 3116 1747 
Q 3116 2381 2855 2742 
Q 2594 3103 2138 3103 
Q 1681 3103 1420 2742 
Q 1159 2381 1159 1747 
Q 1159 1113 1420 752 
Q 1681 391 2138 391 
Q 2594 391 2855 752 
Q 3116 1113 3116 1747 
z
" transform="scale(0.015625)"/>
       <path id="DejaVuSans-73" d="M 2834 3397 
L 2834 2853 
Q 2591 2978 2328 3040 
Q 2066 3103 1784 3103 
Q 1356 3103 1142 2972 
Q 928 2841 928 2578 
Q 928 2378 1081 2264 
Q 1234 2150 1697 2047 
L 1894 2003 
Q 2506 1872 2764 1633 
Q 3022 1394 3022 966 
Q 3022 478 2636 193 
Q 2250 -91 1575 -91 
Q 1294 -91 989 -36 
Q 684 19 347 128 
L 347 722 
Q 666 556 975 473 
Q 1284 391 1588 391 
Q 1994 391 2212 530 
Q 2431 669 2431 922 
Q 2431 1156 2273 1281 
Q 2116 1406 1581 1522 
L 1381 1569 
Q 847 1681 609 1914 
Q 372 2147 372 2553 
Q 372 3047 722 3315 
Q 1072 3584 1716 3584 
Q 2034 3584 2315 3537 
Q 2597 3491 2834 3397 
z
" transform="scale(0.015625)"/>
       <path id="DejaVuSans-20" transform="scale(0.015625)"/>
       <path id="DejaVuSans-28" d="M 1984 4856 
Q 1566 4138 1362 3434 
Q 1159 2731 1159 2009 
Q 1159 1288 1364 580 
Q 1569 -128 1984 -844 
L 1484 -844 
Q 1016 -109 783 600 
Q 550 1309 550 2009 
Q 550 2706 781 3412 
Q 1013 4119 1484 4856 
L 1984 4856 
z
" transform="scale(0.015625)"/>
       <path id="DejaVuSans-d7" d="M 4488 3438 
L 3059 2003 
L 4488 575 
L 4116 197 
L 2681 1631 
L 1247 197 
L 878 575 
L 2303 2003 
L 878 3438 
L 1247 3816 
L 2681 2381 
L 4116 3816 
L 4488 3438 
z
" transform="scale(0.015625)"/>
       <path id="DejaVuSans-36" d="M 2113 2584 
Q 1688 2584 1439 2293 
Q 1191 2003 1191 1497 
Q 1191 994 1439 701 
Q 1688 409 2113 409 
Q 2538 409 2786 701 
Q 3034 994 3034 1497 
Q 3034 2003 2786 2293 
Q 2538 2584 2113 2584 
z
M 3366 4563 
L 3366 3988 
Q 3128 4100 2886 4159 
Q 2644 4219 2406 4219 
Q 1781 4219 1451 3797 
Q 1122 3375 1075 2522 
Q 1259 2794 1537 2939 
Q 1816 3084 2150 3084 
Q 2853 3084 3261 2657 
Q 3669 2231 3669 1497 
Q 3669 778 3244 343 
Q 2819 -91 2113 -91 
Q 1303 -91 875 529 
Q 447 1150 447 2328 
Q 447 3434 972 4092 
Q 1497 4750 2381 4750 
Q 2619 4750 2861 4703 
Q 3103 4656 3366 4563 
z
" transform="scale(0.015625)"/>
       <path id="DejaVuSans-29" d="M 513 4856 
L 1013 4856 
Q 1481 4119 1714 3412 
Q 1947 2706 1947 2009 
Q 1947 1309 1714 600 
Q 1481 -109 1013 -844 
L 513 -844 
Q 928 -128 1133 580 
Q 1338 1288 1338 2009 
Q 1338 2731 1133 3434 
Q 928 4138 513 4856 
z
" transform="scale(0.015625)"/>
      </defs>
      <use xlink:href="#DejaVuSans-53" transform="translate(0 0.765625)"/>
      <use xlink:href="#DejaVuSans-74" transform="translate(63.476562 0.765625)"/>
      <use xlink:href="#DejaVuSans-65" transform="translate(102.685547 0.765625)"/>
      <use xlink:href="#DejaVuSans-70" transform="translate(164.208984 0.765625)"/>
      <use xlink:href="#DejaVuSans-73" transform="translate(227.685547 0.765625)"/>
      <use xlink:href="#DejaVuSans-20" transform="translate(279.785156 0.765625)"/>
      <use xlink:href="#DejaVuSans-28" transform="translate(311.572266 0.765625)"/>
      <use xlink:href="#DejaVuSans-d7" transform="translate(350.585938 0.765625)"/>
      <use xlink:href="#DejaVuSans-31" transform="translate(434.375 0.765625)"/>
      <use xlink:href="#DejaVuSans-30" transform="translate(497.998047 0.765625)"/>
      <use xlink:href="#DejaVuSans-36" transform="translate(562.578125 39.046875) scale(0.7)"/>
      <use xlink:href="#DejaVuSans-29" transform="translate(609.848633 0.765625)"/>
     </g>
    </g>
   </g>
   <g id="matplotlib.axis_2">
    <g id="ytick_1">
     <g id="line2d_11">
      <path d="M 44.749063 170.494125 
L 240.049062 170.494125 
" clip-path="url(#p3c6e7ed3f1)" style="fill: none; stroke: #d3d3d3; stroke-opacity: 0.5; stroke-linecap: square"/>
     </g>
     <g id="line2d_12">
      <defs>
       <path id="m389017902c" d="M 0 0 
L -3.5 0 
" style="stroke: #000000; stroke-width: 0.8"/>
      </defs>
      <g>
       <use xlink:href="#m389017902c" x="44.749063" y="170.494125" style="stroke: #000000; stroke-width: 0.8"/>
      </g>
     </g>
     <g id="text_7">
      <!-- 0.0 -->
      <g transform="translate(21.845937 174.293344) scale(0.1 -0.1)">
       <use xlink:href="#DejaVuSans-30"/>
       <use xlink:href="#DejaVuSans-2e" x="63.623047"/>
       <use xlink:href="#DejaVuSans-30" x="95.410156"/>
      </g>
     </g>
    </g>
    <g id="ytick_2">
     <g id="line2d_13">
      <path d="M 44.749063 142.270125 
L 240.049062 142.270125 
" clip-path="url(#p3c6e7ed3f1)" style="fill: none; stroke: #d3d3d3; stroke-opacity: 0.5; stroke-linecap: square"/>
     </g>
     <g id="line2d_14">
      <g>
       <use xlink:href="#m389017902c" x="44.749063" y="142.270125" style="stroke: #000000; stroke-width: 0.8"/>
      </g>
     </g>
     <g id="text_8">
      <!-- 0.2 -->
      <g transform="translate(21.845937 146.069344) scale(0.1 -0.1)">
       <use xlink:href="#DejaVuSans-30"/>
       <use xlink:href="#DejaVuSans-2e" x="63.623047"/>
       <use xlink:href="#DejaVuSans-32" x="95.410156"/>
      </g>
     </g>
    </g>
    <g id="ytick_3">
     <g id="line2d_15">
      <path d="M 44.749063 114.046125 
L 240.049062 114.046125 
" clip-path="url(#p3c6e7ed3f1)" style="fill: none; stroke: #d3d3d3; stroke-opacity: 0.5; stroke-linecap: square"/>
     </g>
     <g id="line2d_16">
      <g>
       <use xlink:href="#m389017902c" x="44.749063" y="114.046125" style="stroke: #000000; stroke-width: 0.8"/>
      </g>
     </g>
     <g id="text_9">
      <!-- 0.4 -->
      <g transform="translate(21.845937 117.845344) scale(0.1 -0.1)">
       <defs>
        <path id="DejaVuSans-34" d="M 2419 4116 
L 825 1625 
L 2419 1625 
L 2419 4116 
z
M 2253 4666 
L 3047 4666 
L 3047 1625 
L 3713 1625 
L 3713 1100 
L 3047 1100 
L 3047 0 
L 2419 0 
L 2419 1100 
L 313 1100 
L 313 1709 
L 2253 4666 
z
" transform="scale(0.015625)"/>
       </defs>
       <use xlink:href="#DejaVuSans-30"/>
       <use xlink:href="#DejaVuSans-2e" x="63.623047"/>
       <use xlink:href="#DejaVuSans-34" x="95.410156"/>
      </g>
     </g>
    </g>
    <g id="ytick_4">
     <g id="line2d_17">
      <path d="M 44.749063 85.822125 
L 240.049062 85.822125 
" clip-path="url(#p3c6e7ed3f1)" style="fill: none; stroke: #d3d3d3; stroke-opacity: 0.5; stroke-linecap: square"/>
     </g>
     <g id="line2d_18">
      <g>
       <use xlink:href="#m389017902c" x="44.749063" y="85.822125" style="stroke: #000000; stroke-width: 0.8"/>
      </g>
     </g>
     <g id="text_10">
      <!-- 0.6 -->
      <g transform="translate(21.845937 89.621344) scale(0.1 -0.1)">
       <use xlink:href="#DejaVuSans-30"/>
       <use xlink:href="#DejaVuSans-2e" x="63.623047"/>
       <use xlink:href="#DejaVuSans-36" x="95.410156"/>
      </g>
     </g>
    </g>
    <g id="ytick_5">
     <g id="line2d_19">
      <path d="M 44.749063 57.598125 
L 240.049062 57.598125 
" clip-path="url(#p3c6e7ed3f1)" style="fill: none; stroke: #d3d3d3; stroke-opacity: 0.5; stroke-linecap: square"/>
     </g>
     <g id="line2d_20">
      <g>
       <use xlink:href="#m389017902c" x="44.749063" y="57.598125" style="stroke: #000000; stroke-width: 0.8"/>
      </g>
     </g>
     <g id="text_11">
      <!-- 0.8 -->
      <g transform="translate(21.845937 61.397344) scale(0.1 -0.1)">
       <defs>
        <path id="DejaVuSans-38" d="M 2034 2216 
Q 1584 2216 1326 1975 
Q 1069 1734 1069 1313 
Q 1069 891 1326 650 
Q 1584 409 2034 409 
Q 2484 409 2743 651 
Q 3003 894 3003 1313 
Q 3003 1734 2745 1975 
Q 2488 2216 2034 2216 
z
M 1403 2484 
Q 997 2584 770 2862 
Q 544 3141 544 3541 
Q 544 4100 942 4425 
Q 1341 4750 2034 4750 
Q 2731 4750 3128 4425 
Q 3525 4100 3525 3541 
Q 3525 3141 3298 2862 
Q 3072 2584 2669 2484 
Q 3125 2378 3379 2068 
Q 3634 1759 3634 1313 
Q 3634 634 3220 271 
Q 2806 -91 2034 -91 
Q 1263 -91 848 271 
Q 434 634 434 1313 
Q 434 1759 690 2068 
Q 947 2378 1403 2484 
z
M 1172 3481 
Q 1172 3119 1398 2916 
Q 1625 2713 2034 2713 
Q 2441 2713 2670 2916 
Q 2900 3119 2900 3481 
Q 2900 3844 2670 4047 
Q 2441 4250 2034 4250 
Q 1625 4250 1398 4047 
Q 1172 3844 1172 3481 
z
" transform="scale(0.015625)"/>
       </defs>
       <use xlink:href="#DejaVuSans-30"/>
       <use xlink:href="#DejaVuSans-2e" x="63.623047"/>
       <use xlink:href="#DejaVuSans-38" x="95.410156"/>
      </g>
     </g>
    </g>
    <g id="ytick_6">
     <g id="line2d_21">
      <path d="M 44.749063 29.374125 
L 240.049062 29.374125 
" clip-path="url(#p3c6e7ed3f1)" style="fill: none; stroke: #d3d3d3; stroke-opacity: 0.5; stroke-linecap: square"/>
     </g>
     <g id="line2d_22">
      <g>
       <use xlink:href="#m389017902c" x="44.749063" y="29.374125" style="stroke: #000000; stroke-width: 0.8"/>
      </g>
     </g>
     <g id="text_12">
      <!-- 1.0 -->
      <g transform="translate(21.845937 33.173344) scale(0.1 -0.1)">
       <use xlink:href="#DejaVuSans-31"/>
       <use xlink:href="#DejaVuSans-2e" x="63.623047"/>
       <use xlink:href="#DejaVuSans-30" x="95.410156"/>
      </g>
     </g>
    </g>
    <g id="text_13">
     <!-- Success Rate -->
     <g transform="translate(15.558281 136.430922) rotate(-90) scale(0.11 -0.11)">
      <defs>
       <path id="DejaVuSans-75" d="M 544 1381 
L 544 3500 
L 1119 3500 
L 1119 1403 
Q 1119 906 1312 657 
Q 1506 409 1894 409 
Q 2359 409 2629 706 
Q 2900 1003 2900 1516 
L 2900 3500 
L 3475 3500 
L 3475 0 
L 2900 0 
L 2900 538 
Q 2691 219 2414 64 
Q 2138 -91 1772 -91 
Q 1169 -91 856 284 
Q 544 659 544 1381 
z
M 1991 3584 
L 1991 3584 
z
" transform="scale(0.015625)"/>
       <path id="DejaVuSans-63" d="M 3122 3366 
L 3122 2828 
Q 2878 2963 2633 3030 
Q 2388 3097 2138 3097 
Q 1578 3097 1268 2742 
Q 959 2388 959 1747 
Q 959 1106 1268 751 
Q 1578 397 2138 397 
Q 2388 397 2633 464 
Q 2878 531 3122 666 
L 3122 134 
Q 2881 22 2623 -34 
Q 2366 -91 2075 -91 
Q 1284 -91 818 406 
Q 353 903 353 1747 
Q 353 2603 823 3093 
Q 1294 3584 2113 3584 
Q 2378 3584 2631 3529 
Q 2884 3475 3122 3366 
z
" transform="scale(0.015625)"/>
       <path id="DejaVuSans-52" d="M 2841 2188 
Q 3044 2119 3236 1894 
Q 3428 1669 3622 1275 
L 4263 0 
L 3584 0 
L 2988 1197 
Q 2756 1666 2539 1819 
Q 2322 1972 1947 1972 
L 1259 1972 
L 1259 0 
L 628 0 
L 628 4666 
L 2053 4666 
Q 2853 4666 3247 4331 
Q 3641 3997 3641 3322 
Q 3641 2881 3436 2590 
Q 3231 2300 2841 2188 
z
M 1259 4147 
L 1259 2491 
L 2053 2491 
Q 2509 2491 2742 2702 
Q 2975 2913 2975 3322 
Q 2975 3731 2742 3939 
Q 2509 4147 2053 4147 
L 1259 4147 
z
" transform="scale(0.015625)"/>
       <path id="DejaVuSans-61" d="M 2194 1759 
Q 1497 1759 1228 1600 
Q 959 1441 959 1056 
Q 959 750 1161 570 
Q 1363 391 1709 391 
Q 2188 391 2477 730 
Q 2766 1069 2766 1631 
L 2766 1759 
L 2194 1759 
z
M 3341 1997 
L 3341 0 
L 2766 0 
L 2766 531 
Q 2569 213 2275 61 
Q 1981 -91 1556 -91 
Q 1019 -91 701 211 
Q 384 513 384 1019 
Q 384 1609 779 1909 
Q 1175 2209 1959 2209 
L 2766 2209 
L 2766 2266 
Q 2766 2663 2505 2880 
Q 2244 3097 1772 3097 
Q 1472 3097 1187 3025 
Q 903 2953 641 2809 
L 641 3341 
Q 956 3463 1253 3523 
Q 1550 3584 1831 3584 
Q 2591 3584 2966 3190 
Q 3341 2797 3341 1997 
z
" transform="scale(0.015625)"/>
      </defs>
      <use xlink:href="#DejaVuSans-53"/>
      <use xlink:href="#DejaVuSans-75" x="63.476562"/>
      <use xlink:href="#DejaVuSans-63" x="126.855469"/>
      <use xlink:href="#DejaVuSans-63" x="181.835938"/>
      <use xlink:href="#DejaVuSans-65" x="236.816406"/>
      <use xlink:href="#DejaVuSans-73" x="298.339844"/>
      <use xlink:href="#DejaVuSans-73" x="350.439453"/>
      <use xlink:href="#DejaVuSans-20" x="402.539062"/>
      <use xlink:href="#DejaVuSans-52" x="434.326172"/>
      <use xlink:href="#DejaVuSans-61" x="501.558594"/>
      <use xlink:href="#DejaVuSans-74" x="562.837891"/>
      <use xlink:href="#DejaVuSans-65" x="602.046875"/>
     </g>
    </g>
   </g>
   <g id="line2d_23">
    <path d="M 142.399063 170.494125 
L 151.699063 114.072118 
L 160.999063 103.382429 
L 170.299063 98.102184 
L 179.599063 94.566706 
L 188.899063 91.748307 
L 198.199063 88.31472 
L 207.499063 86.899812 
L 216.799063 85.261804 
L 226.099063 84.155708 
L 235.399063 83.192863 
" clip-path="url(#p3c6e7ed3f1)" style="fill: none; stroke: #66add6; stroke-width: 1.5; stroke-linecap: square"/>
    <defs>
     <path id="m7aa932a5c3" d="M -0 3.535534 
L 3.535534 0 
L 0 -3.535534 
L -3.535534 -0 
z
" style="stroke: #66add6; stroke-width: 1.5; stroke-linejoin: miter"/>
    </defs>
    <g clip-path="url(#p3c6e7ed3f1)">
     <use xlink:href="#m7aa932a5c3" x="142.399063" y="170.494125" style="fill: #b2d6ea; stroke: #66add6; stroke-width: 1.5; stroke-linejoin: miter"/>
     <use xlink:href="#m7aa932a5c3" x="151.699063" y="114.072118" style="fill: #b2d6ea; stroke: #66add6; stroke-width: 1.5; stroke-linejoin: miter"/>
     <use xlink:href="#m7aa932a5c3" x="160.999063" y="103.382429" style="fill: #b2d6ea; stroke: #66add6; stroke-width: 1.5; stroke-linejoin: miter"/>
     <use xlink:href="#m7aa932a5c3" x="170.299063" y="98.102184" style="fill: #b2d6ea; stroke: #66add6; stroke-width: 1.5; stroke-linejoin: miter"/>
     <use xlink:href="#m7aa932a5c3" x="179.599063" y="94.566706" style="fill: #b2d6ea; stroke: #66add6; stroke-width: 1.5; stroke-linejoin: miter"/>
     <use xlink:href="#m7aa932a5c3" x="188.899063" y="91.748307" style="fill: #b2d6ea; stroke: #66add6; stroke-width: 1.5; stroke-linejoin: miter"/>
     <use xlink:href="#m7aa932a5c3" x="198.199063" y="88.31472" style="fill: #b2d6ea; stroke: #66add6; stroke-width: 1.5; stroke-linejoin: miter"/>
     <use xlink:href="#m7aa932a5c3" x="207.499063" y="86.899812" style="fill: #b2d6ea; stroke: #66add6; stroke-width: 1.5; stroke-linejoin: miter"/>
     <use xlink:href="#m7aa932a5c3" x="216.799063" y="85.261804" style="fill: #b2d6ea; stroke: #66add6; stroke-width: 1.5; stroke-linejoin: miter"/>
     <use xlink:href="#m7aa932a5c3" x="226.099063" y="84.155708" style="fill: #b2d6ea; stroke: #66add6; stroke-width: 1.5; stroke-linejoin: miter"/>
     <use xlink:href="#m7aa932a5c3" x="235.399063" y="83.192863" style="fill: #b2d6ea; stroke: #66add6; stroke-width: 1.5; stroke-linejoin: miter"/>
    </g>
   </g>
   <g id="line2d_24">
    <path d="M 142.399063 170.494125 
L 151.699063 143.560364 
L 160.999063 104.518565 
L 170.299063 93.341297 
L 179.599063 89.606769 
L 188.899063 85.972968 
L 198.199063 81.95965 
L 207.499063 80.751943 
L 216.799063 78.532457 
L 226.099063 76.533485 
L 235.399063 75.318882 
" clip-path="url(#p3c6e7ed3f1)" style="fill: none; stroke: #66add6; stroke-width: 1.5; stroke-linecap: square"/>
    <defs>
     <path id="m2f40c60df2" d="M 0 -2.5 
L -2.5 2.5 
L 2.5 2.5 
z
" style="stroke: #66add6; stroke-width: 1.5; stroke-linejoin: miter"/>
    </defs>
    <g clip-path="url(#p3c6e7ed3f1)">
     <use xlink:href="#m2f40c60df2" x="142.399063" y="170.494125" style="fill: #b2d6ea; stroke: #66add6; stroke-width: 1.5; stroke-linejoin: miter"/>
     <use xlink:href="#m2f40c60df2" x="151.699063" y="143.560364" style="fill: #b2d6ea; stroke: #66add6; stroke-width: 1.5; stroke-linejoin: miter"/>
     <use xlink:href="#m2f40c60df2" x="160.999063" y="104.518565" style="fill: #b2d6ea; stroke: #66add6; stroke-width: 1.5; stroke-linejoin: miter"/>
     <use xlink:href="#m2f40c60df2" x="170.299063" y="93.341297" style="fill: #b2d6ea; stroke: #66add6; stroke-width: 1.5; stroke-linejoin: miter"/>
     <use xlink:href="#m2f40c60df2" x="179.599063" y="89.606769" style="fill: #b2d6ea; stroke: #66add6; stroke-width: 1.5; stroke-linejoin: miter"/>
     <use xlink:href="#m2f40c60df2" x="188.899063" y="85.972968" style="fill: #b2d6ea; stroke: #66add6; stroke-width: 1.5; stroke-linejoin: miter"/>
     <use xlink:href="#m2f40c60df2" x="198.199063" y="81.95965" style="fill: #b2d6ea; stroke: #66add6; stroke-width: 1.5; stroke-linejoin: miter"/>
     <use xlink:href="#m2f40c60df2" x="207.499063" y="80.751943" style="fill: #b2d6ea; stroke: #66add6; stroke-width: 1.5; stroke-linejoin: miter"/>
     <use xlink:href="#m2f40c60df2" x="216.799063" y="78.532457" style="fill: #b2d6ea; stroke: #66add6; stroke-width: 1.5; stroke-linejoin: miter"/>
     <use xlink:href="#m2f40c60df2" x="226.099063" y="76.533485" style="fill: #b2d6ea; stroke: #66add6; stroke-width: 1.5; stroke-linejoin: miter"/>
     <use xlink:href="#m2f40c60df2" x="235.399063" y="75.318882" style="fill: #b2d6ea; stroke: #66add6; stroke-width: 1.5; stroke-linejoin: miter"/>
    </g>
   </g>
   <g id="line2d_25">
    <path d="M 49.399062 170.494125 
L 58.699063 161.778842 
L 67.999063 142.060923 
L 77.299063 125.528952 
L 86.599063 126.322267 
L 95.899063 122.992281 
L 105.199063 120.662299 
L 114.499063 120.534569 
L 123.799063 119.772278 
L 133.099063 117.373701 
L 142.399063 117.767121 
L 151.699063 103.088445 
L 160.999063 98.614653 
L 170.299063 94.629853 
L 179.599063 92.69713 
L 188.899063 91.917098 
L 198.199063 90.894898 
L 207.499063 90.383552 
L 216.799063 89.557204 
L 226.099063 87.823128 
L 235.399063 87.918841 
" clip-path="url(#p3c6e7ed3f1)" style="fill: none; stroke: #66add6; stroke-width: 1.5; stroke-linecap: square"/>
    <defs>
     <path id="m62156574b8" d="M -2.5 2.5 
L 2.5 2.5 
L 2.5 -2.5 
L -2.5 -2.5 
z
" style="stroke: #66add6; stroke-width: 1.5; stroke-linejoin: miter"/>
    </defs>
    <g clip-path="url(#p3c6e7ed3f1)">
     <use xlink:href="#m62156574b8" x="49.399062" y="170.494125" style="fill: #b2d6ea; stroke: #66add6; stroke-width: 1.5; stroke-linejoin: miter"/>
     <use xlink:href="#m62156574b8" x="58.699063" y="161.778842" style="fill: #b2d6ea; stroke: #66add6; stroke-width: 1.5; stroke-linejoin: miter"/>
     <use xlink:href="#m62156574b8" x="67.999063" y="142.060923" style="fill: #b2d6ea; stroke: #66add6; stroke-width: 1.5; stroke-linejoin: miter"/>
     <use xlink:href="#m62156574b8" x="77.299063" y="125.528952" style="fill: #b2d6ea; stroke: #66add6; stroke-width: 1.5; stroke-linejoin: miter"/>
     <use xlink:href="#m62156574b8" x="86.599063" y="126.322267" style="fill: #b2d6ea; stroke: #66add6; stroke-width: 1.5; stroke-linejoin: miter"/>
     <use xlink:href="#m62156574b8" x="95.899063" y="122.992281" style="fill: #b2d6ea; stroke: #66add6; stroke-width: 1.5; stroke-linejoin: miter"/>
     <use xlink:href="#m62156574b8" x="105.199063" y="120.662299" style="fill: #b2d6ea; stroke: #66add6; stroke-width: 1.5; stroke-linejoin: miter"/>
     <use xlink:href="#m62156574b8" x="114.499063" y="120.534569" style="fill: #b2d6ea; stroke: #66add6; stroke-width: 1.5; stroke-linejoin: miter"/>
     <use xlink:href="#m62156574b8" x="123.799063" y="119.772278" style="fill: #b2d6ea; stroke: #66add6; stroke-width: 1.5; stroke-linejoin: miter"/>
     <use xlink:href="#m62156574b8" x="133.099063" y="117.373701" style="fill: #b2d6ea; stroke: #66add6; stroke-width: 1.5; stroke-linejoin: miter"/>
     <use xlink:href="#m62156574b8" x="142.399063" y="117.767121" style="fill: #b2d6ea; stroke: #66add6; stroke-width: 1.5; stroke-linejoin: miter"/>
     <use xlink:href="#m62156574b8" x="151.699063" y="103.088445" style="fill: #b2d6ea; stroke: #66add6; stroke-width: 1.5; stroke-linejoin: miter"/>
     <use xlink:href="#m62156574b8" x="160.999063" y="98.614653" style="fill: #b2d6ea; stroke: #66add6; stroke-width: 1.5; stroke-linejoin: miter"/>
     <use xlink:href="#m62156574b8" x="170.299063" y="94.629853" style="fill: #b2d6ea; stroke: #66add6; stroke-width: 1.5; stroke-linejoin: miter"/>
     <use xlink:href="#m62156574b8" x="179.599063" y="92.69713" style="fill: #b2d6ea; stroke: #66add6; stroke-width: 1.5; stroke-linejoin: miter"/>
     <use xlink:href="#m62156574b8" x="188.899063" y="91.917098" style="fill: #b2d6ea; stroke: #66add6; stroke-width: 1.5; stroke-linejoin: miter"/>
     <use xlink:href="#m62156574b8" x="198.199063" y="90.894898" style="fill: #b2d6ea; stroke: #66add6; stroke-width: 1.5; stroke-linejoin: miter"/>
     <use xlink:href="#m62156574b8" x="207.499063" y="90.383552" style="fill: #b2d6ea; stroke: #66add6; stroke-width: 1.5; stroke-linejoin: miter"/>
     <use xlink:href="#m62156574b8" x="216.799063" y="89.557204" style="fill: #b2d6ea; stroke: #66add6; stroke-width: 1.5; stroke-linejoin: miter"/>
     <use xlink:href="#m62156574b8" x="226.099063" y="87.823128" style="fill: #b2d6ea; stroke: #66add6; stroke-width: 1.5; stroke-linejoin: miter"/>
     <use xlink:href="#m62156574b8" x="235.399063" y="87.918841" style="fill: #b2d6ea; stroke: #66add6; stroke-width: 1.5; stroke-linejoin: miter"/>
    </g>
   </g>
   <g id="line2d_26">
    <path d="M 49.399062 170.494125 
L 58.699063 146.303642 
L 67.999063 118.724842 
L 77.299063 110.955642 
L 86.599063 104.511511 
L 95.899063 102.398694 
L 105.199063 101.770812 
L 114.499063 101.483176 
L 123.799063 100.413499 
L 133.099063 99.18119 
L 142.399063 98.004303 
L 151.699063 89.417587 
L 160.999063 85.141466 
L 170.299063 84.640009 
L 179.599063 84.902872 
L 188.899063 84.199972 
L 198.199063 83.653817 
L 207.499063 83.86137 
L 216.799063 82.322141 
L 226.099063 83.933041 
L 235.399063 82.117226 
" clip-path="url(#p3c6e7ed3f1)" style="fill: none; stroke: #66add6; stroke-width: 1.5; stroke-linecap: square"/>
    <defs>
     <path id="m47c4b57532" d="M 0 2.5 
C 0.663008 2.5 1.29895 2.236584 1.767767 1.767767 
C 2.236584 1.29895 2.5 0.663008 2.5 0 
C 2.5 -0.663008 2.236584 -1.29895 1.767767 -1.767767 
C 1.29895 -2.236584 0.663008 -2.5 0 -2.5 
C -0.663008 -2.5 -1.29895 -2.236584 -1.767767 -1.767767 
C -2.236584 -1.29895 -2.5 -0.663008 -2.5 0 
C -2.5 0.663008 -2.236584 1.29895 -1.767767 1.767767 
C -1.29895 2.236584 -0.663008 2.5 0 2.5 
z
" style="stroke: #66add6; stroke-width: 1.5"/>
    </defs>
    <g clip-path="url(#p3c6e7ed3f1)">
     <use xlink:href="#m47c4b57532" x="49.399062" y="170.494125" style="fill: #b2d6ea; stroke: #66add6; stroke-width: 1.5"/>
     <use xlink:href="#m47c4b57532" x="58.699063" y="146.303642" style="fill: #b2d6ea; stroke: #66add6; stroke-width: 1.5"/>
     <use xlink:href="#m47c4b57532" x="67.999063" y="118.724842" style="fill: #b2d6ea; stroke: #66add6; stroke-width: 1.5"/>
     <use xlink:href="#m47c4b57532" x="77.299063" y="110.955642" style="fill: #b2d6ea; stroke: #66add6; stroke-width: 1.5"/>
     <use xlink:href="#m47c4b57532" x="86.599063" y="104.511511" style="fill: #b2d6ea; stroke: #66add6; stroke-width: 1.5"/>
     <use xlink:href="#m47c4b57532" x="95.899063" y="102.398694" style="fill: #b2d6ea; stroke: #66add6; stroke-width: 1.5"/>
     <use xlink:href="#m47c4b57532" x="105.199063" y="101.770812" style="fill: #b2d6ea; stroke: #66add6; stroke-width: 1.5"/>
     <use xlink:href="#m47c4b57532" x="114.499063" y="101.483176" style="fill: #b2d6ea; stroke: #66add6; stroke-width: 1.5"/>
     <use xlink:href="#m47c4b57532" x="123.799063" y="100.413499" style="fill: #b2d6ea; stroke: #66add6; stroke-width: 1.5"/>
     <use xlink:href="#m47c4b57532" x="133.099063" y="99.18119" style="fill: #b2d6ea; stroke: #66add6; stroke-width: 1.5"/>
     <use xlink:href="#m47c4b57532" x="142.399063" y="98.004303" style="fill: #b2d6ea; stroke: #66add6; stroke-width: 1.5"/>
     <use xlink:href="#m47c4b57532" x="151.699063" y="89.417587" style="fill: #b2d6ea; stroke: #66add6; stroke-width: 1.5"/>
     <use xlink:href="#m47c4b57532" x="160.999063" y="85.141466" style="fill: #b2d6ea; stroke: #66add6; stroke-width: 1.5"/>
     <use xlink:href="#m47c4b57532" x="170.299063" y="84.640009" style="fill: #b2d6ea; stroke: #66add6; stroke-width: 1.5"/>
     <use xlink:href="#m47c4b57532" x="179.599063" y="84.902872" style="fill: #b2d6ea; stroke: #66add6; stroke-width: 1.5"/>
     <use xlink:href="#m47c4b57532" x="188.899063" y="84.199972" style="fill: #b2d6ea; stroke: #66add6; stroke-width: 1.5"/>
     <use xlink:href="#m47c4b57532" x="198.199063" y="83.653817" style="fill: #b2d6ea; stroke: #66add6; stroke-width: 1.5"/>
     <use xlink:href="#m47c4b57532" x="207.499063" y="83.86137" style="fill: #b2d6ea; stroke: #66add6; stroke-width: 1.5"/>
     <use xlink:href="#m47c4b57532" x="216.799063" y="82.322141" style="fill: #b2d6ea; stroke: #66add6; stroke-width: 1.5"/>
     <use xlink:href="#m47c4b57532" x="226.099063" y="83.933041" style="fill: #b2d6ea; stroke: #66add6; stroke-width: 1.5"/>
     <use xlink:href="#m47c4b57532" x="235.399063" y="82.117226" style="fill: #b2d6ea; stroke: #66add6; stroke-width: 1.5"/>
    </g>
   </g>
   <g id="line2d_27">
    <path d="M 49.399062 170.494125 
L 58.699063 122.470048 
L 67.999063 114.667068 
L 77.299063 109.676847 
L 86.599063 107.370705 
L 95.899063 106.103876 
L 105.199063 102.15567 
L 114.499063 100.415965 
L 123.799063 99.253483 
L 133.099063 98.734274 
L 142.399063 99.399231 
L 151.699063 72.257949 
L 160.999063 59.648301 
L 170.299063 57.342664 
L 179.599063 56.52754 
L 188.899063 55.386093 
L 198.199063 54.203538 
L 207.499063 52.004219 
L 216.799063 49.955502 
L 226.099063 48.786637 
L 235.399063 48.831261 
" clip-path="url(#p3c6e7ed3f1)" style="fill: none; stroke: #cb297b; stroke-width: 1.5; stroke-linecap: square"/>
    <defs>
     <path id="md403218298" d="M 0 2.5 
C 0.663008 2.5 1.29895 2.236584 1.767767 1.767767 
C 2.236584 1.29895 2.5 0.663008 2.5 0 
C 2.5 -0.663008 2.236584 -1.29895 1.767767 -1.767767 
C 1.29895 -2.236584 0.663008 -2.5 0 -2.5 
C -0.663008 -2.5 -1.29895 -2.236584 -1.767767 -1.767767 
C -2.236584 -1.29895 -2.5 -0.663008 -2.5 0 
C -2.5 0.663008 -2.236584 1.29895 -1.767767 1.767767 
C -1.29895 2.236584 -0.663008 2.5 0 2.5 
z
" style="stroke: #cb297b; stroke-width: 1.5"/>
    </defs>
    <g clip-path="url(#p3c6e7ed3f1)">
     <use xlink:href="#md403218298" x="49.399062" y="170.494125" style="fill: #e594bd; stroke: #cb297b; stroke-width: 1.5"/>
     <use xlink:href="#md403218298" x="58.699063" y="122.470048" style="fill: #e594bd; stroke: #cb297b; stroke-width: 1.5"/>
     <use xlink:href="#md403218298" x="67.999063" y="114.667068" style="fill: #e594bd; stroke: #cb297b; stroke-width: 1.5"/>
     <use xlink:href="#md403218298" x="77.299063" y="109.676847" style="fill: #e594bd; stroke: #cb297b; stroke-width: 1.5"/>
     <use xlink:href="#md403218298" x="86.599063" y="107.370705" style="fill: #e594bd; stroke: #cb297b; stroke-width: 1.5"/>
     <use xlink:href="#md403218298" x="95.899063" y="106.103876" style="fill: #e594bd; stroke: #cb297b; stroke-width: 1.5"/>
     <use xlink:href="#md403218298" x="105.199063" y="102.15567" style="fill: #e594bd; stroke: #cb297b; stroke-width: 1.5"/>
     <use xlink:href="#md403218298" x="114.499063" y="100.415965" style="fill: #e594bd; stroke: #cb297b; stroke-width: 1.5"/>
     <use xlink:href="#md403218298" x="123.799063" y="99.253483" style="fill: #e594bd; stroke: #cb297b; stroke-width: 1.5"/>
     <use xlink:href="#md403218298" x="133.099063" y="98.734274" style="fill: #e594bd; stroke: #cb297b; stroke-width: 1.5"/>
     <use xlink:href="#md403218298" x="142.399063" y="99.399231" style="fill: #e594bd; stroke: #cb297b; stroke-width: 1.5"/>
     <use xlink:href="#md403218298" x="151.699063" y="72.257949" style="fill: #e594bd; stroke: #cb297b; stroke-width: 1.5"/>
     <use xlink:href="#md403218298" x="160.999063" y="59.648301" style="fill: #e594bd; stroke: #cb297b; stroke-width: 1.5"/>
     <use xlink:href="#md403218298" x="170.299063" y="57.342664" style="fill: #e594bd; stroke: #cb297b; stroke-width: 1.5"/>
     <use xlink:href="#md403218298" x="179.599063" y="56.52754" style="fill: #e594bd; stroke: #cb297b; stroke-width: 1.5"/>
     <use xlink:href="#md403218298" x="188.899063" y="55.386093" style="fill: #e594bd; stroke: #cb297b; stroke-width: 1.5"/>
     <use xlink:href="#md403218298" x="198.199063" y="54.203538" style="fill: #e594bd; stroke: #cb297b; stroke-width: 1.5"/>
     <use xlink:href="#md403218298" x="207.499063" y="52.004219" style="fill: #e594bd; stroke: #cb297b; stroke-width: 1.5"/>
     <use xlink:href="#md403218298" x="216.799063" y="49.955502" style="fill: #e594bd; stroke: #cb297b; stroke-width: 1.5"/>
     <use xlink:href="#md403218298" x="226.099063" y="48.786637" style="fill: #e594bd; stroke: #cb297b; stroke-width: 1.5"/>
     <use xlink:href="#md403218298" x="235.399063" y="48.831261" style="fill: #e594bd; stroke: #cb297b; stroke-width: 1.5"/>
    </g>
   </g>
   <g id="patch_5">
    <path d="M 44.749063 177.550125 
L 44.749063 22.318125 
" style="fill: none; stroke: #d3d3d3; stroke-width: 0.8; stroke-linejoin: miter; stroke-linecap: square"/>
   </g>
   <g id="patch_6">
    <path d="M 240.049062 177.550125 
L 240.049062 22.318125 
" style="fill: none; stroke: #d3d3d3; stroke-width: 0.8; stroke-linejoin: miter; stroke-linecap: square"/>
   </g>
   <g id="patch_7">
    <path d="M 44.749063 177.550125 
L 240.049062 177.550125 
" style="fill: none; stroke: #d3d3d3; stroke-width: 0.8; stroke-linejoin: miter; stroke-linecap: square"/>
   </g>
   <g id="patch_8">
    <path d="M 44.749063 22.318125 
L 240.049062 22.318125 
" style="fill: none; stroke: #d3d3d3; stroke-width: 0.8; stroke-linejoin: miter; stroke-linecap: square"/>
   </g>
   <g id="text_14">
    <!-- Aggregated (5 OGBench Domains) -->
    <g transform="translate(38.601875 16.318125) scale(0.12 -0.12)">
     <defs>
      <path id="DejaVuSans-41" d="M 2188 4044 
L 1331 1722 
L 3047 1722 
L 2188 4044 
z
M 1831 4666 
L 2547 4666 
L 4325 0 
L 3669 0 
L 3244 1197 
L 1141 1197 
L 716 0 
L 50 0 
L 1831 4666 
z
" transform="scale(0.015625)"/>
      <path id="DejaVuSans-67" d="M 2906 1791 
Q 2906 2416 2648 2759 
Q 2391 3103 1925 3103 
Q 1463 3103 1205 2759 
Q 947 2416 947 1791 
Q 947 1169 1205 825 
Q 1463 481 1925 481 
Q 2391 481 2648 825 
Q 2906 1169 2906 1791 
z
M 3481 434 
Q 3481 -459 3084 -895 
Q 2688 -1331 1869 -1331 
Q 1566 -1331 1297 -1286 
Q 1028 -1241 775 -1147 
L 775 -588 
Q 1028 -725 1275 -790 
Q 1522 -856 1778 -856 
Q 2344 -856 2625 -561 
Q 2906 -266 2906 331 
L 2906 616 
Q 2728 306 2450 153 
Q 2172 0 1784 0 
Q 1141 0 747 490 
Q 353 981 353 1791 
Q 353 2603 747 3093 
Q 1141 3584 1784 3584 
Q 2172 3584 2450 3431 
Q 2728 3278 2906 2969 
L 2906 3500 
L 3481 3500 
L 3481 434 
z
" transform="scale(0.015625)"/>
      <path id="DejaVuSans-72" d="M 2631 2963 
Q 2534 3019 2420 3045 
Q 2306 3072 2169 3072 
Q 1681 3072 1420 2755 
Q 1159 2438 1159 1844 
L 1159 0 
L 581 0 
L 581 3500 
L 1159 3500 
L 1159 2956 
Q 1341 3275 1631 3429 
Q 1922 3584 2338 3584 
Q 2397 3584 2469 3576 
Q 2541 3569 2628 3553 
L 2631 2963 
z
" transform="scale(0.015625)"/>
      <path id="DejaVuSans-64" d="M 2906 2969 
L 2906 4863 
L 3481 4863 
L 3481 0 
L 2906 0 
L 2906 525 
Q 2725 213 2448 61 
Q 2172 -91 1784 -91 
Q 1150 -91 751 415 
Q 353 922 353 1747 
Q 353 2572 751 3078 
Q 1150 3584 1784 3584 
Q 2172 3584 2448 3432 
Q 2725 3281 2906 2969 
z
M 947 1747 
Q 947 1113 1208 752 
Q 1469 391 1925 391 
Q 2381 391 2643 752 
Q 2906 1113 2906 1747 
Q 2906 2381 2643 2742 
Q 2381 3103 1925 3103 
Q 1469 3103 1208 2742 
Q 947 2381 947 1747 
z
" transform="scale(0.015625)"/>
      <path id="DejaVuSans-4f" d="M 2522 4238 
Q 1834 4238 1429 3725 
Q 1025 3213 1025 2328 
Q 1025 1447 1429 934 
Q 1834 422 2522 422 
Q 3209 422 3611 934 
Q 4013 1447 4013 2328 
Q 4013 3213 3611 3725 
Q 3209 4238 2522 4238 
z
M 2522 4750 
Q 3503 4750 4090 4092 
Q 4678 3434 4678 2328 
Q 4678 1225 4090 567 
Q 3503 -91 2522 -91 
Q 1538 -91 948 565 
Q 359 1222 359 2328 
Q 359 3434 948 4092 
Q 1538 4750 2522 4750 
z
" transform="scale(0.015625)"/>
      <path id="DejaVuSans-47" d="M 3809 666 
L 3809 1919 
L 2778 1919 
L 2778 2438 
L 4434 2438 
L 4434 434 
Q 4069 175 3628 42 
Q 3188 -91 2688 -91 
Q 1594 -91 976 548 
Q 359 1188 359 2328 
Q 359 3472 976 4111 
Q 1594 4750 2688 4750 
Q 3144 4750 3555 4637 
Q 3966 4525 4313 4306 
L 4313 3634 
Q 3963 3931 3569 4081 
Q 3175 4231 2741 4231 
Q 1884 4231 1454 3753 
Q 1025 3275 1025 2328 
Q 1025 1384 1454 906 
Q 1884 428 2741 428 
Q 3075 428 3337 486 
Q 3600 544 3809 666 
z
" transform="scale(0.015625)"/>
      <path id="DejaVuSans-42" d="M 1259 2228 
L 1259 519 
L 2272 519 
Q 2781 519 3026 730 
Q 3272 941 3272 1375 
Q 3272 1813 3026 2020 
Q 2781 2228 2272 2228 
L 1259 2228 
z
M 1259 4147 
L 1259 2741 
L 2194 2741 
Q 2656 2741 2882 2914 
Q 3109 3088 3109 3444 
Q 3109 3797 2882 3972 
Q 2656 4147 2194 4147 
L 1259 4147 
z
M 628 4666 
L 2241 4666 
Q 2963 4666 3353 4366 
Q 3744 4066 3744 3513 
Q 3744 3084 3544 2831 
Q 3344 2578 2956 2516 
Q 3422 2416 3680 2098 
Q 3938 1781 3938 1306 
Q 3938 681 3513 340 
Q 3088 0 2303 0 
L 628 0 
L 628 4666 
z
" transform="scale(0.015625)"/>
      <path id="DejaVuSans-6e" d="M 3513 2113 
L 3513 0 
L 2938 0 
L 2938 2094 
Q 2938 2591 2744 2837 
Q 2550 3084 2163 3084 
Q 1697 3084 1428 2787 
Q 1159 2491 1159 1978 
L 1159 0 
L 581 0 
L 581 3500 
L 1159 3500 
L 1159 2956 
Q 1366 3272 1645 3428 
Q 1925 3584 2291 3584 
Q 2894 3584 3203 3211 
Q 3513 2838 3513 2113 
z
" transform="scale(0.015625)"/>
      <path id="DejaVuSans-68" d="M 3513 2113 
L 3513 0 
L 2938 0 
L 2938 2094 
Q 2938 2591 2744 2837 
Q 2550 3084 2163 3084 
Q 1697 3084 1428 2787 
Q 1159 2491 1159 1978 
L 1159 0 
L 581 0 
L 581 4863 
L 1159 4863 
L 1159 2956 
Q 1366 3272 1645 3428 
Q 1925 3584 2291 3584 
Q 2894 3584 3203 3211 
Q 3513 2838 3513 2113 
z
" transform="scale(0.015625)"/>
      <path id="DejaVuSans-44" d="M 1259 4147 
L 1259 519 
L 2022 519 
Q 2988 519 3436 956 
Q 3884 1394 3884 2338 
Q 3884 3275 3436 3711 
Q 2988 4147 2022 4147 
L 1259 4147 
z
M 628 4666 
L 1925 4666 
Q 3281 4666 3915 4102 
Q 4550 3538 4550 2338 
Q 4550 1131 3912 565 
Q 3275 0 1925 0 
L 628 0 
L 628 4666 
z
" transform="scale(0.015625)"/>
      <path id="DejaVuSans-6f" d="M 1959 3097 
Q 1497 3097 1228 2736 
Q 959 2375 959 1747 
Q 959 1119 1226 758 
Q 1494 397 1959 397 
Q 2419 397 2687 759 
Q 2956 1122 2956 1747 
Q 2956 2369 2687 2733 
Q 2419 3097 1959 3097 
z
M 1959 3584 
Q 2709 3584 3137 3096 
Q 3566 2609 3566 1747 
Q 3566 888 3137 398 
Q 2709 -91 1959 -91 
Q 1206 -91 779 398 
Q 353 888 353 1747 
Q 353 2609 779 3096 
Q 1206 3584 1959 3584 
z
" transform="scale(0.015625)"/>
      <path id="DejaVuSans-6d" d="M 3328 2828 
Q 3544 3216 3844 3400 
Q 4144 3584 4550 3584 
Q 5097 3584 5394 3201 
Q 5691 2819 5691 2113 
L 5691 0 
L 5113 0 
L 5113 2094 
Q 5113 2597 4934 2840 
Q 4756 3084 4391 3084 
Q 3944 3084 3684 2787 
Q 3425 2491 3425 1978 
L 3425 0 
L 2847 0 
L 2847 2094 
Q 2847 2600 2669 2842 
Q 2491 3084 2119 3084 
Q 1678 3084 1418 2786 
Q 1159 2488 1159 1978 
L 1159 0 
L 581 0 
L 581 3500 
L 1159 3500 
L 1159 2956 
Q 1356 3278 1631 3431 
Q 1906 3584 2284 3584 
Q 2666 3584 2933 3390 
Q 3200 3197 3328 2828 
z
" transform="scale(0.015625)"/>
      <path id="DejaVuSans-69" d="M 603 3500 
L 1178 3500 
L 1178 0 
L 603 0 
L 603 3500 
z
M 603 4863 
L 1178 4863 
L 1178 4134 
L 603 4134 
L 603 4863 
z
" transform="scale(0.015625)"/>
     </defs>
     <use xlink:href="#DejaVuSans-41"/>
     <use xlink:href="#DejaVuSans-67" x="68.408203"/>
     <use xlink:href="#DejaVuSans-67" x="131.884766"/>
     <use xlink:href="#DejaVuSans-72" x="195.361328"/>
     <use xlink:href="#DejaVuSans-65" x="234.224609"/>
     <use xlink:href="#DejaVuSans-67" x="295.748047"/>
     <use xlink:href="#DejaVuSans-61" x="359.224609"/>
     <use xlink:href="#DejaVuSans-74" x="420.503906"/>
     <use xlink:href="#DejaVuSans-65" x="459.712891"/>
     <use xlink:href="#DejaVuSans-64" x="521.236328"/>
     <use xlink:href="#DejaVuSans-20" x="584.712891"/>
     <use xlink:href="#DejaVuSans-28" x="616.5"/>
     <use xlink:href="#DejaVuSans-35" x="655.513672"/>
     <use xlink:href="#DejaVuSans-20" x="719.136719"/>
     <use xlink:href="#DejaVuSans-4f" x="750.923828"/>
     <use xlink:href="#DejaVuSans-47" x="829.634766"/>
     <use xlink:href="#DejaVuSans-42" x="907.125"/>
     <use xlink:href="#DejaVuSans-65" x="975.728516"/>
     <use xlink:href="#DejaVuSans-6e" x="1037.251953"/>
     <use xlink:href="#DejaVuSans-63" x="1100.630859"/>
     <use xlink:href="#DejaVuSans-68" x="1155.611328"/>
     <use xlink:href="#DejaVuSans-20" x="1218.990234"/>
     <use xlink:href="#DejaVuSans-44" x="1250.777344"/>
     <use xlink:href="#DejaVuSans-6f" x="1327.779297"/>
     <use xlink:href="#DejaVuSans-6d" x="1388.960938"/>
     <use xlink:href="#DejaVuSans-61" x="1486.373047"/>
     <use xlink:href="#DejaVuSans-69" x="1547.652344"/>
     <use xlink:href="#DejaVuSans-6e" x="1575.435547"/>
     <use xlink:href="#DejaVuSans-73" x="1638.814453"/>
     <use xlink:href="#DejaVuSans-29" x="1690.914062"/>
    </g>
   </g>
   <g id="legend_1">
    <g id="patch_9">
     <path d="M 51.049062 95.569688 
L 118.802188 95.569688 
Q 120.602188 95.569688 120.602188 93.769688 
L 120.602188 28.618125 
Q 120.602188 26.818125 118.802188 26.818125 
L 51.049062 26.818125 
Q 49.249063 26.818125 49.249063 28.618125 
L 49.249063 93.769688 
Q 49.249063 95.569688 51.049062 95.569688 
z
" style="fill: #ffffff; opacity: 0.8; stroke: #cccccc; stroke-linejoin: miter"/>
    </g>
    <g id="line2d_28">
     <path d="M 52.849063 34.106719 
L 61.849063 34.106719 
L 70.849063 34.106719 
" style="fill: none; stroke: #cb297b; stroke-width: 1.5; stroke-linecap: square"/>
     <g>
      <use xlink:href="#md403218298" x="61.849063" y="34.106719" style="fill: #e594bd; stroke: #cb297b; stroke-width: 1.5"/>
     </g>
    </g>
    <g id="text_15">
     <!-- QC -->
     <g transform="translate(78.049063 37.256719) scale(0.09 -0.09)">
      <defs>
       <path id="DejaVuSans-51" d="M 2522 4238 
Q 1834 4238 1429 3725 
Q 1025 3213 1025 2328 
Q 1025 1447 1429 934 
Q 1834 422 2522 422 
Q 3209 422 3611 934 
Q 4013 1447 4013 2328 
Q 4013 3213 3611 3725 
Q 3209 4238 2522 4238 
z
M 3406 84 
L 4238 -825 
L 3475 -825 
L 2784 -78 
Q 2681 -84 2626 -87 
Q 2572 -91 2522 -91 
Q 1538 -91 948 567 
Q 359 1225 359 2328 
Q 359 3434 948 4092 
Q 1538 4750 2522 4750 
Q 3503 4750 4090 4092 
Q 4678 3434 4678 2328 
Q 4678 1516 4351 937 
Q 4025 359 3406 84 
z
" transform="scale(0.015625)"/>
       <path id="DejaVuSans-43" d="M 4122 4306 
L 4122 3641 
Q 3803 3938 3442 4084 
Q 3081 4231 2675 4231 
Q 1875 4231 1450 3742 
Q 1025 3253 1025 2328 
Q 1025 1406 1450 917 
Q 1875 428 2675 428 
Q 3081 428 3442 575 
Q 3803 722 4122 1019 
L 4122 359 
Q 3791 134 3420 21 
Q 3050 -91 2638 -91 
Q 1578 -91 968 557 
Q 359 1206 359 2328 
Q 359 3453 968 4101 
Q 1578 4750 2638 4750 
Q 3056 4750 3426 4639 
Q 3797 4528 4122 4306 
z
" transform="scale(0.015625)"/>
      </defs>
      <use xlink:href="#DejaVuSans-51"/>
      <use xlink:href="#DejaVuSans-43" x="78.710938"/>
     </g>
    </g>
    <g id="line2d_29">
     <path d="M 52.849063 47.317031 
L 61.849063 47.317031 
L 70.849063 47.317031 
" style="fill: none; stroke: #66add6; stroke-width: 1.5; stroke-linecap: square"/>
     <g>
      <use xlink:href="#m47c4b57532" x="61.849063" y="47.317031" style="fill: #b2d6ea; stroke: #66add6; stroke-width: 1.5"/>
     </g>
    </g>
    <g id="text_16">
     <!-- BFN -->
     <g transform="translate(78.049063 50.467031) scale(0.09 -0.09)">
      <defs>
       <path id="DejaVuSans-46" d="M 628 4666 
L 3309 4666 
L 3309 4134 
L 1259 4134 
L 1259 2759 
L 3109 2759 
L 3109 2228 
L 1259 2228 
L 1259 0 
L 628 0 
L 628 4666 
z
" transform="scale(0.015625)"/>
       <path id="DejaVuSans-4e" d="M 628 4666 
L 1478 4666 
L 3547 763 
L 3547 4666 
L 4159 4666 
L 4159 0 
L 3309 0 
L 1241 3903 
L 1241 0 
L 628 0 
L 628 4666 
z
" transform="scale(0.015625)"/>
      </defs>
      <use xlink:href="#DejaVuSans-42"/>
      <use xlink:href="#DejaVuSans-46" x="68.603516"/>
      <use xlink:href="#DejaVuSans-4e" x="126.123047"/>
     </g>
    </g>
    <g id="line2d_30">
     <path d="M 52.849063 60.527344 
L 61.849063 60.527344 
L 70.849063 60.527344 
" style="fill: none; stroke: #66add6; stroke-width: 1.5; stroke-linecap: square"/>
     <g>
      <use xlink:href="#m62156574b8" x="61.849063" y="60.527344" style="fill: #b2d6ea; stroke: #66add6; stroke-width: 1.5; stroke-linejoin: miter"/>
     </g>
    </g>
    <g id="text_17">
     <!-- FQL -->
     <g transform="translate(78.049063 63.677344) scale(0.09 -0.09)">
      <defs>
       <path id="DejaVuSans-4c" d="M 628 4666 
L 1259 4666 
L 1259 531 
L 3531 531 
L 3531 0 
L 628 0 
L 628 4666 
z
" transform="scale(0.015625)"/>
      </defs>
      <use xlink:href="#DejaVuSans-46"/>
      <use xlink:href="#DejaVuSans-51" x="57.519531"/>
      <use xlink:href="#DejaVuSans-4c" x="136.230469"/>
     </g>
    </g>
    <g id="line2d_31">
     <path d="M 52.849063 73.737656 
L 61.849063 73.737656 
L 70.849063 73.737656 
" style="fill: none; stroke: #66add6; stroke-width: 1.5; stroke-linecap: square"/>
     <g>
      <use xlink:href="#m2f40c60df2" x="61.849063" y="73.737656" style="fill: #b2d6ea; stroke: #66add6; stroke-width: 1.5; stroke-linejoin: miter"/>
     </g>
    </g>
    <g id="text_18">
     <!-- RLPD -->
     <g transform="translate(78.049063 76.887656) scale(0.09 -0.09)">
      <defs>
       <path id="DejaVuSans-50" d="M 1259 4147 
L 1259 2394 
L 2053 2394 
Q 2494 2394 2734 2622 
Q 2975 2850 2975 3272 
Q 2975 3691 2734 3919 
Q 2494 4147 2053 4147 
L 1259 4147 
z
M 628 4666 
L 2053 4666 
Q 2838 4666 3239 4311 
Q 3641 3956 3641 3272 
Q 3641 2581 3239 2228 
Q 2838 1875 2053 1875 
L 1259 1875 
L 1259 0 
L 628 0 
L 628 4666 
z
" transform="scale(0.015625)"/>
      </defs>
      <use xlink:href="#DejaVuSans-52"/>
      <use xlink:href="#DejaVuSans-4c" x="69.482422"/>
      <use xlink:href="#DejaVuSans-50" x="125.195312"/>
      <use xlink:href="#DejaVuSans-44" x="185.498047"/>
     </g>
    </g>
    <g id="line2d_32">
     <path d="M 52.849063 86.947969 
L 61.849063 86.947969 
L 70.849063 86.947969 
" style="fill: none; stroke: #66add6; stroke-width: 1.5; stroke-linecap: square"/>
     <g>
      <use xlink:href="#m7aa932a5c3" x="61.849063" y="86.947969" style="fill: #b2d6ea; stroke: #66add6; stroke-width: 1.5; stroke-linejoin: miter"/>
     </g>
    </g>
    <g id="text_19">
     <!-- RLPD-AC -->
     <g transform="translate(78.049063 90.097969) scale(0.09 -0.09)">
      <defs>
       <path id="DejaVuSans-2d" d="M 313 2009 
L 1997 2009 
L 1997 1497 
L 313 1497 
L 313 2009 
z
" transform="scale(0.015625)"/>
      </defs>
      <use xlink:href="#DejaVuSans-52"/>
      <use xlink:href="#DejaVuSans-4c" x="69.482422"/>
      <use xlink:href="#DejaVuSans-50" x="125.195312"/>
      <use xlink:href="#DejaVuSans-44" x="185.498047"/>
      <use xlink:href="#DejaVuSans-2d" x="262.5"/>
      <use xlink:href="#DejaVuSans-41" x="296.333984"/>
      <use xlink:href="#DejaVuSans-43" x="362.992188"/>
     </g>
    </g>
   </g>
  </g>
 </g>
 <defs>
  <clipPath id="p3c6e7ed3f1">
   <rect x="44.749063" y="22.318125" width="195.3" height="155.232"/>
  </clipPath>
 </defs>
</svg>
